<?xml version="1.0" encoding="utf-8"?>
<!-- Generator: Adobe Illustrator 21.1.0, SVG Export Plug-In . SVG Version: 6.00 Build 0)  -->
<svg version="1.1"
	 id="Capa_1" xmlns:cc="http://creativecommons.org/ns#" xmlns:dc="http://purl.org/dc/elements/1.1/" xmlns:inkscape="http://www.inkscape.org/namespaces/inkscape" xmlns:rdf="http://www.w3.org/1999/02/22-rdf-syntax-ns#" xmlns:sodipodi="http://sodipodi.sourceforge.net/DTD/sodipodi-0.dtd" xmlns:svg="http://www.w3.org/2000/svg"
	 xmlns="http://www.w3.org/2000/svg" xmlns:xlink="http://www.w3.org/1999/xlink" x="0px" y="0px" viewBox="0 0 92.1 81.9"
	 style="enable-background:new 0 0 92.1 81.9;" xml:space="preserve">
<style type="text/css">
	.st0{fill:#FFFFFF;}
</style>
<path class="st0" d="M49,0.9c-0.1,0-0.2,0-0.3,0c-1.5,0.2-2.7,1.5-2.7,3v1.4c-1.2,0.3-2.4,0.9-3.4,1.7c-2,1.4-3.6,3.9-3.6,6.9
	c0,3.8,2.7,6.3,4.8,7.7c2.1,1.4,4.2,2.1,4.2,2.1s1.4,0.5,2.8,1.4s2.2,1.9,2.2,2.7c0,1-0.3,1.5-1.1,2.1s-2,0.9-2.9,0.9
	c-3.6,0-5.1-1.3-5.1-1.3c-1.3-1-3.2-0.8-4.2,0.5c-1,1.3-0.8,3.2,0.5,4.2c0,0,0,0,0,0c0,0,2.2,1.7,5.9,2.3v1.3c0,1.7,1.3,3,3,3
	c1.7,0,3-1.3,3-3c0,0,0-0.1,0-0.1v-1.4c1.2-0.3,2.4-0.9,3.4-1.7c2-1.4,3.6-3.9,3.6-6.9c0-3.8-2.7-6.3-4.8-7.7S50,18.1,50,18.1
	s-1.4-0.5-2.8-1.4c-1.4-0.9-2.2-1.9-2.2-2.7c0-1,0.3-1.5,1.1-2.1s2-0.9,2.9-0.9c3.6,0,5.1,1.3,5.1,1.3c1.3,1,3.2,0.8,4.2-0.5
	c1-1.3,0.8-3.2-0.5-4.2c0,0,0,0,0,0c0,0-2.2-1.7-5.9-2.3V3.9C52.1,2.3,50.8,0.9,49,0.9C49.1,0.9,49,0.9,49,0.9z M73.7,11.9
	c-1.7,0.1-2.9,1.5-2.8,3.2s1.5,2.9,3.2,2.8l0,0h6.8L48.7,51L27.8,35.5c-1.1-0.8-2.6-0.8-3.6,0l-22,17c-1.3,1-1.5,2.9-0.5,4.2
	s2.9,1.5,4.2,0.5l20.2-15.6l21.2,15.7c1.2,0.9,2.9,0.8,3.9-0.3L85,22.3v6.6c0,1.7,1.3,3,3,3c1.7,0,3-1.3,3-3c0,0,0-0.1,0-0.1v-14
	c0-1.7-1.3-3-3-3H74C73.9,11.9,73.8,11.9,73.7,11.9z M79,34.9c-0.1,0-0.2,0-0.3,0c-1.5,0.2-2.7,1.5-2.7,3v40c0,1.7,1.3,3,3,3
	c1.7,0,3-1.3,3-3c0,0,0-0.1,0-0.1v-40C82.1,36.3,80.8,34.9,79,34.9C79.1,34.9,79,34.9,79,34.9z M19,50.9c-0.1,0-0.2,0-0.3,0
	c-1.5,0.2-2.7,1.5-2.7,3v24c0,1.7,1.3,3,3,3c1.7,0,3-1.3,3-3c0,0,0-0.1,0-0.1v-24C22.1,52.3,20.8,50.9,19,50.9
	C19.1,50.9,19,50.9,19,50.9z M64,50.9c-0.1,0-0.2,0-0.3,0c-1.5,0.2-2.7,1.5-2.7,3v24c0,1.7,1.3,3,3,3c1.7,0,3-1.3,3-3
	c0,0,0-0.1,0-0.1v-24C67.1,52.3,65.8,50.9,64,50.9C64.1,50.9,64,50.9,64,50.9z M34,51.9c-0.1,0-0.2,0-0.3,0c-1.5,0.2-2.7,1.5-2.7,3
	v23c0,1.7,1.3,3,3,3c1.7,0,3-1.3,3-3c0,0,0-0.1,0-0.1v-23C37.1,53.3,35.8,51.9,34,51.9C34.1,51.9,34,51.9,34,51.9z M49,61.9
	c-0.1,0-0.2,0-0.3,0c-1.5,0.2-2.7,1.5-2.7,3v13c0,1.7,1.3,3,3,3c1.7,0,3-1.3,3-3c0,0,0-0.1,0-0.1v-13C52.1,63.3,50.8,61.9,49,61.9
	C49.1,61.9,49,61.9,49,61.9z"/>
</svg>
