<?xml version="1.0" encoding="utf-8"?>
<!-- Generator: Adobe Illustrator 21.1.0, SVG Export Plug-In . SVG Version: 6.00 Build 0)  -->
<svg version="1.1"
	 id="Capa_1" xmlns:cc="http://creativecommons.org/ns#" xmlns:dc="http://purl.org/dc/elements/1.1/" xmlns:inkscape="http://www.inkscape.org/namespaces/inkscape" xmlns:rdf="http://www.w3.org/1999/02/22-rdf-syntax-ns#" xmlns:sodipodi="http://sodipodi.sourceforge.net/DTD/sodipodi-0.dtd" xmlns:svg="http://www.w3.org/2000/svg"
	 xmlns="http://www.w3.org/2000/svg" xmlns:xlink="http://www.w3.org/1999/xlink" x="0px" y="0px" viewBox="0 0 69.6 93.6"
	 style="enable-background:new 0 0 69.6 93.6;" xml:space="preserve">
<style type="text/css">
	.st0{fill:#FFFFFF;}
</style>
<path class="st0" d="M4.5,1.8C3,2,1.8,3.3,1.8,4.8v84c0,1.7,1.3,3,3,3h60c1.7,0,3-1.3,3-3V24.6c0-0.8-0.3-1.6-0.9-2.1l-20-19.8
	c-0.6-0.6-1.3-0.9-2.1-0.9h-40C4.7,1.8,4.6,1.8,4.5,1.8z M7.8,7.8h34v17c0,1.7,1.3,3,3,3h17v58h-54V7.8z M47.8,12l9.9,9.8h-9.9V12z
	 M14.5,30.8c-1.7,0.1-2.9,1.5-2.8,3.2s1.5,2.9,3.2,2.8h20c1.7,0,3-1.3,3-3c0-1.7-1.3-3-3-3c0,0-0.1,0-0.1,0h-20
	C14.7,30.8,14.6,30.8,14.5,30.8z M14.5,42.8c-1.7,0.1-2.9,1.5-2.8,3.2s1.5,2.9,3.2,2.8h40c1.7,0,3-1.3,3-3c0-1.7-1.3-3-3-3
	c0,0-0.1,0-0.1,0h-40C14.7,42.8,14.6,42.8,14.5,42.8z M14.5,54.8c-1.7,0.1-2.9,1.5-2.8,3.2c0.1,1.7,1.5,2.9,3.2,2.8c0,0,0,0,0,0h20
	c1.7,0,3-1.3,3-3c0-1.7-1.3-3-3-3c0,0-0.1,0-0.1,0h-20C14.7,54.8,14.6,54.8,14.5,54.8z M51.7,57.8c-0.9,0-1.7,0.5-2.2,1.2l-7,9
	c-1,1.3-0.8,3.2,0.5,4.2c0.5,0.4,1.2,0.6,1.9,0.6h3.3l-3.6,4c-1.1,1.2-1,3.1,0.2,4.2s3.1,1,4.2-0.2l0,0l8-9c1.1-1.2,1-3.1-0.2-4.2
	c-0.6-0.5-1.3-0.8-2-0.8H51l3.2-4.2c1-1.3,0.8-3.2-0.5-4.2C53.1,58,52.4,57.7,51.7,57.8z M14.5,66.8c-1.7,0.1-2.9,1.5-2.8,3.2
	s1.5,2.9,3.2,2.8h20c1.7,0,3-1.3,3-3c0-1.7-1.3-3-3-3c0,0-0.1,0-0.1,0h-20C14.7,66.8,14.6,66.8,14.5,66.8z"/>
</svg>
