<?xml version="1.0" encoding="utf-8"?>
<!-- Generator: Adobe Illustrator 21.1.0, SVG Export Plug-In . SVG Version: 6.00 Build 0)  -->
<svg version="1.1"
	 id="Capa_1" xmlns:cc="http://creativecommons.org/ns#" xmlns:dc="http://purl.org/dc/elements/1.1/" xmlns:inkscape="http://www.inkscape.org/namespaces/inkscape" xmlns:rdf="http://www.w3.org/1999/02/22-rdf-syntax-ns#" xmlns:sodipodi="http://sodipodi.sourceforge.net/DTD/sodipodi-0.dtd" xmlns:svg="http://www.w3.org/2000/svg"
	 xmlns="http://www.w3.org/2000/svg" xmlns:xlink="http://www.w3.org/1999/xlink" x="0px" y="0px" viewBox="0 0 86.9 93.2"
	 style="enable-background:new 0 0 86.9 93.2;" xml:space="preserve">
<style type="text/css">
	.st0{fill:#FFFFFF;}
</style>
<path class="st0" d="M22.1,1.6c-1.5,0.2-2.7,1.5-2.7,3v3h-11c-3.8,0-7,3.2-7,7v70c0,3.8,3.2,7,7,7h52c3.8,0,7-3.2,7-7V58.2l7.8-13.3
	l3,1.8l-7.4,12.4c-1,1.3-0.7,3.2,0.6,4.2c1.3,1,3.2,0.7,4.2-0.6c0.1-0.2,0.2-0.3,0.3-0.5l9-15c0.9-1.4,0.4-3.3-1-4.1c0,0,0,0,0,0
	l-5.6-3.3l1.9-3.2c2.4-4.1,1-9.4-3.1-11.7l-0.1-0.1c-3.1-1.7-6.9-1.3-9.6,0.7V14.6c0-3.8-3.2-7-7-7h-11v-3c0-1.7-1.3-3-3-3h-24
	C22.4,1.6,22.3,1.6,22.1,1.6z M25.5,7.6h18v6h-18V7.6z M8.5,13.6h11v3c0,1.7,1.3,3,3,3h24c1.7,0,3-1.3,3-3v-3h11c0.6,0,1,0.4,1,1
	v19.6L53,48.7c0,0,0,0,0,0c-0.2,0-0.3,0-0.5,0h-18c-0.1,0-0.2,0-0.3,0c-1.7,0.1-2.9,1.5-2.8,3.2s1.5,2.9,3.2,2.8h14.9l-4.8,8.1
	c-0.4,0.6-0.6,1.2-0.8,1.9h-9.3c-0.1,0-0.2,0-0.3,0c-1.7,0.1-2.9,1.5-2.8,3.2s1.5,2.9,3.2,2.8l0,0h9.8c0.7,1.5,1.9,2.9,3.5,3.8
	l0.1,0.1c4.1,2.3,9.5,0.9,11.9-3.2l1.7-2.9v16.2c0,0.6-0.4,1-1,1h-52c-0.6,0-1-0.4-1-1v-70C7.5,14,7.9,13.6,8.5,13.6z M26.2,26.6
	c-0.8,0.1-1.5,0.5-2,1.1l-5.3,6l-0.8-0.6c-1.4-1-3.2-0.6-4.2,0.7s-0.6,3.2,0.7,4.2c0.1,0,0.1,0.1,0.2,0.1l3,2
	c1.3,0.8,2.9,0.6,3.9-0.5l7-8c1.1-1.2,1-3.1-0.2-4.2C27.9,26.8,27,26.5,26.2,26.6z M72.5,29.6c0.5,0,1,0.1,1.5,0.4l0.1,0.1
	c1.3,0.7,1.7,2.3,0.9,3.6l-1.8,3.1L68.6,34l1.8-3C70.8,30.1,71.6,29.6,72.5,29.6z M34.1,32.6c-1.7,0.1-2.9,1.5-2.8,3.2
	s1.5,2.9,3.2,2.8h18c1.7,0,3-1.3,3-3c0-1.7-1.3-3-3-3c0,0-0.1,0-0.1,0h-18C34.4,32.6,34.3,32.6,34.1,32.6z M65.5,39.2l4.6,2.7
	L54.5,68.3c-0.8,1.3-2.3,1.7-3.6,1l-0.1-0.1c-1.3-0.7-1.7-2.3-1-3.6L65.5,39.2z M26.2,42.6c-0.8,0.1-1.5,0.5-2,1.1l-5.3,6l-0.8-0.6
	c-1.4-1-3.2-0.6-4.2,0.7s-0.6,3.2,0.7,4.2c0.1,0,0.1,0.1,0.2,0.1l3,2c1.3,0.8,2.9,0.6,3.9-0.5l7-8c1.1-1.2,1-3.1-0.2-4.2
	C27.9,42.8,27,42.5,26.2,42.6z M26.2,58.6c-0.8,0.1-1.5,0.5-2,1.1l-5.3,6l-0.8-0.6c-1.4-1-3.2-0.6-4.2,0.7s-0.6,3.2,0.7,4.2
	c0.1,0,0.1,0.1,0.2,0.1l3,2c1.3,0.8,2.9,0.6,3.9-0.5l7-8c1.1-1.2,1-3.1-0.2-4.2C27.9,58.8,27,58.5,26.2,58.6z"/>
</svg>
