<?xml version="1.0" encoding="utf-8"?>
<!-- Generator: Adobe Illustrator 21.1.0, SVG Export Plug-In . SVG Version: 6.00 Build 0)  -->
<svg version="1.1" id="Capa_1" xmlns="http://www.w3.org/2000/svg" xmlns:xlink="http://www.w3.org/1999/xlink" x="0px" y="0px"
	 viewBox="0 0 265.7 70" style="enable-background:new 0 0 265.7 70;" xml:space="preserve">
<style type="text/css">
	.st0{fill:#AD073D;}
	.st1{fill:url(#SVGID_1_);}
	.st2{fill:url(#SVGID_2_);}
	.st3{fill:url(#SVGID_3_);}
	.st4{fill:#F05A29;}
	.st5{fill:#8A8A8D;}
	.st6{fill:url(#SVGID_4_);}
	.st7{fill:url(#SVGID_5_);}
	.st8{fill:url(#SVGID_6_);}
	.st9{fill:url(#SVGID_7_);}
	.st10{fill:url(#SVGID_8_);}
	.st11{fill:url(#SVGID_9_);}
	.st12{fill:#9D9D9C;}
	.st13{fill:url(#SVGID_10_);}
	.st14{fill:url(#SVGID_11_);}
	.st15{fill:url(#SVGID_12_);}
	.st16{fill:#B2B2B2;}
	.st17{fill:url(#SVGID_13_);}
	.st18{fill:url(#SVGID_14_);}
	.st19{fill:url(#SVGID_15_);}
	.st20{fill:#FFFFFF;}
	.st21{fill:url(#SVGID_16_);}
	.st22{fill:url(#SVGID_17_);}
	.st23{fill:url(#SVGID_18_);}
	.st24{enable-background:new    ;}
</style>
<g>
	<g>
		<polygon class="st0" points="-545.7,-80.5 -540.4,-77.5 -522,-66.9 -522,-94.1 -540.4,-83.6 		"/>
		
			<linearGradient id="SVGID_1_" gradientUnits="userSpaceOnUse" x1="-582.8" y1="668.44" x2="-526.1" y2="668.44" gradientTransform="matrix(1 0 0 1 0 -769.89)">
			<stop  offset="0" style="stop-color:#F9A61A"/>
			<stop  offset="1" style="stop-color:#F05A29"/>
		</linearGradient>
		<path class="st1" d="M-548.2-113.5l-0.3-0.2c-1.3-0.7-2.9-1.1-4.5-1.1s-3.1,0.4-4.4,1.1l-0.8,0.4l-20.7,11.9l-0.8,0.5
			c-1.3,0.8-2.3,1.9-3.1,3.2l16.6,9.6l0,0l13-7.5l0.1-0.1l0.1,0.1l9,5.2l17.9-10.3L-548.2-113.5z"/>
		
			<linearGradient id="SVGID_2_" gradientUnits="userSpaceOnUse" x1="-526.032" y1="711.44" x2="-552.5919" y2="711.44" gradientTransform="matrix(1 0 0 1 0 -769.89)">
			<stop  offset="0" style="stop-color:#F9A61A"/>
			<stop  offset="1" style="stop-color:#F05A29"/>
		</linearGradient>
		<path class="st2" d="M-543.9-70.6l-9.1,5.2h-0.1l0,0v19.1c1.6,0,3-0.4,4.3-1.1l0.9-0.5l21.7-12.5L-543.9-70.6z"/>
		
			<linearGradient id="SVGID_3_" gradientUnits="userSpaceOnUse" x1="-568.4" y1="722.9956" x2="-568.4" y2="672.7321" gradientTransform="matrix(1 0 0 1 0 -769.89)">
			<stop  offset="0" style="stop-color:#F9A61A"/>
			<stop  offset="1" style="stop-color:#F05A29"/>
		</linearGradient>
		<path class="st3" d="M-553-65.3l-13.1-7.6v-15.2l0,0l0,0l-16.5-9.6c-0.7,1.2-1.1,2.5-1.3,4v1.7v23.8v0.2c0,3.3,1.7,6.1,4.3,7.8
			l1,0.6l20.7,12l0.6,0.3c1.3,0.7,2.9,1.1,4.4,1.1L-553-65.3L-553-65.3z"/>
		<g>
			<path class="st4" d="M-514.4-91.4c0-1.9,0.9-2.7,2.7-2.7h6.8c4.5,0,6,3.1,6,6.9c0,3.5-1,5.1-3.2,6c2.6,0.9,3.1,2.6,3.1,5.7v2.9
				c0,1.5,0.3,2.8,0.3,4.2c0,0.8-0.7,1.6-2.4,1.6c-1.9,0-3-0.8-3-2.5l-0.2-6.8c-0.1-1.9-1-2.8-2.9-2.8h-2.1v9.6
				c0,1.6-1.2,2.6-2.5,2.6s-2.5-1-2.5-2.6L-514.4-91.4L-514.4-91.4z M-509.4-82.8h1.9c2,0,3.4-0.9,3.4-3.8c0-2.7-0.8-3.8-3.2-3.8
				h-2.1L-509.4-82.8L-509.4-82.8z"/>
			<path class="st4" d="M-495.8-79.5c0-5.1,0.7-8.4,6.9-8.4c4.7,0,6.3,2.6,6.3,7.9c0,1.8-0.2,3.2-2.5,3.2h-5.9v2
				c0,2.4,0.2,4.3,2,4.3c1,0,1.7-1,1.7-2.1c0.1-2,1-2.4,2.2-2.4c1.3,0,2.3,0.4,2.3,2.2c0,3.6-2.5,5.8-6.2,5.8
				c-6.1,0-6.9-3.3-6.9-8.4L-495.8-79.5L-495.8-79.5z M-487.1-80v-1.7c0-1.5-0.5-2.7-2-2.7s-2,1.2-2,2.7v1.7H-487.1z"/>
			<path class="st4" d="M-479.8-80.1c0-4.1,0.7-7.8,4.8-7.8c1.7,0,3.2,0.8,4,2.3h0.1v-6.3c0-1.9,0.9-2.7,2.3-2.7s2.3,0.8,2.3,2.7
				v22.2c0,1.9-0.9,2.7-2.3,2.7c-1.3,0-2.3-1-2.3-2.3h-0.1c-0.8,1.6-2.3,2.3-4,2.3c-4.1,0-4.8-3.7-4.8-7.8V-80.1z M-475.1-75.9
				c0,3.3,0.2,5.3,1.9,5.3c1.8,0,2.3-2,2.3-4.9v-3.8c0-4-1.2-4.9-2.2-4.9c-1.5,0-1.9,1.2-1.9,5.6L-475.1-75.9L-475.1-75.9z"/>
			<path class="st5" d="M-462.7-82.6c0-9.4,2.6-12.1,8.6-12.1c4.9,0,7.5,3,7.5,6.7c0,1.7-0.6,3-2.5,3s-2.4-0.8-2.7-3
				c-0.3-1.9-1-2.7-2.3-2.7c-2.3,0-3.4,1-3.4,9v1.5c0,6.4,0.1,9.6,3.2,9.6c1.3,0,2.4-1.2,2.5-2.7c0.1-3,0.6-4.1,2.7-4.1
				c1.7,0,2.5,1.1,2.5,2.9c0,5.6-3.3,7.8-8.1,7.8c-7.8,0-8-6.4-8-11.6L-462.7-82.6L-462.7-82.6z"/>
			<path class="st5" d="M-431-71.7c0,1.3,0.3,2.4,0.3,3c0,1.2-0.8,1.8-2.3,1.8c-1.2,0-2.4-0.6-2.4-2.6h-0.1
				c-0.8,1.8-2.5,2.5-4.1,2.5c-2.7,0-4.7-1.6-4.7-5.4c0-3,0.9-4.8,3.2-6l4-2.1c1-0.5,1.4-1.3,1.4-2.1c0-1.1-0.6-2-1.7-2
				c-1.6,0-2,0.8-2.2,2.4c-0.1,0.9-1,1.4-2.2,1.4c-1,0-2.4-0.5-2.4-1.9c0-3.5,2.8-5.3,6.3-5.3c6,0,6.7,2.7,6.7,5.9L-431-71.7
				L-431-71.7z M-435.6-77.8l-1.6,1.1c-2,1.4-2.4,2.1-2.4,3.8c0,1.5,0.6,2.4,1.6,2.4c1.5,0,2.4-1.6,2.4-3.7V-77.8z"/>
			<path class="st5" d="M-427-85.2c0-1.9,0.9-2.7,2.3-2.7s2.3,0.9,2.3,2.7h0.1c0.8-1.7,2.4-2.7,4-2.7c4.1,0,4.8,3.7,4.8,7.8v5.4
				c0,4.1-0.7,7.8-4.8,7.8c-1.7,0-3.2-0.7-4-2.3h-0.1v6.7c0,1.9-0.9,2.7-2.3,2.7s-2.3-0.9-2.3-2.7V-85.2z M-422.5-75.3
				c0,2.9,0.5,4.9,2.3,4.9c1.7,0,1.9-1.9,1.9-5.3v-2.8c0-4.4-0.4-5.6-1.9-5.6c-1.1,0-2.2,0.8-2.2,4.9L-422.5-75.3L-422.5-75.3z"/>
			<path class="st5" d="M-407.6-94.7c1.4,0,2.6,1.1,2.6,2.6c0,1.4-1.1,2.6-2.6,2.6c-1.4,0-2.6-1.2-2.6-2.6S-409-94.7-407.6-94.7z
				 M-409.9-85.2c0-1.9,0.9-2.7,2.3-2.7s2.3,0.9,2.3,2.7v15.6c0,1.9-0.9,2.7-2.3,2.7s-2.3-0.9-2.3-2.7V-85.2z"/>
			<path class="st5" d="M-400.7-84.1h-0.5c-1.3,0-2-0.4-2-1.7c0-1.3,0.7-1.7,2-1.7h0.5v-3.4c0-1.9,0.9-2.7,2.3-2.7s2.3,0.9,2.3,2.7
				v3.4h1c1.3,0,2,0.4,2,1.7c0,1.2-0.7,1.7-2,1.7h-1v11.8c0,0.8,0.2,1.3,1.2,1.4c1,0,1.7,0.4,1.7,1.6c0,1.5-0.9,2.1-2.9,2.1
				c-3.5,0-4.6-1.8-4.6-3.7V-84.1L-400.7-84.1z"/>
			<path class="st5" d="M-378.9-71.7c0,1.3,0.3,2.4,0.3,3c0,1.2-0.8,1.8-2.3,1.8c-1.2,0-2.4-0.6-2.4-2.6h-0.1
				c-0.8,1.8-2.5,2.5-4.1,2.5c-2.7,0-4.7-1.6-4.7-5.4c0-3,0.9-4.8,3.2-6l4-2.1c1-0.5,1.4-1.3,1.4-2.1c0-1.1-0.6-2-1.7-2
				c-1.6,0-2,0.8-2.2,2.4c-0.1,0.9-1,1.4-2.2,1.4c-1,0-2.4-0.5-2.4-1.9c0-3.5,2.8-5.3,6.3-5.3c6,0,6.7,2.7,6.7,5.9L-378.9-71.7
				L-378.9-71.7z M-383.4-77.8l-1.6,1.1c-2,1.4-2.4,2.1-2.4,3.8c0,1.5,0.6,2.4,1.6,2.4c1.5,0,2.4-1.6,2.4-3.7V-77.8z"/>
			<path class="st5" d="M-374.9-91.8c0-1.9,0.9-2.7,2.3-2.7s2.3,0.8,2.3,2.7v22.2c0,1.9-0.9,2.7-2.3,2.7s-2.3-0.9-2.3-2.7V-91.8z"/>
		</g>
	</g>
</g>
<g>
	<g>
		<polygon class="st0" points="-246.4,-80.5 -241.2,-77.5 -222.7,-66.9 -222.8,-94.1 -241.2,-83.6 		"/>
		
			<linearGradient id="SVGID_4_" gradientUnits="userSpaceOnUse" x1="-283.6" y1="668.44" x2="-226.9" y2="668.44" gradientTransform="matrix(1 0 0 1 0 -769.89)">
			<stop  offset="0" style="stop-color:#F9A61A"/>
			<stop  offset="1" style="stop-color:#F05A29"/>
		</linearGradient>
		<path class="st6" d="M-249-113.5l-0.3-0.2c-1.3-0.7-2.9-1.1-4.5-1.1s-3.1,0.4-4.4,1.1l-0.8,0.4l-20.7,11.9l-0.8,0.5
			c-1.3,0.8-2.3,1.9-3.1,3.2l16.6,9.6l0,0l13-7.5l0.1-0.1l0.1,0.1l9,5.2l17.9-10.3L-249-113.5z"/>
		
			<linearGradient id="SVGID_5_" gradientUnits="userSpaceOnUse" x1="-226.782" y1="711.44" x2="-253.3419" y2="711.44" gradientTransform="matrix(1 0 0 1 0 -769.89)">
			<stop  offset="0" style="stop-color:#F9A61A"/>
			<stop  offset="1" style="stop-color:#F05A29"/>
		</linearGradient>
		<path class="st7" d="M-244.6-70.6l-9.1,5.2h-0.1l0,0v19.1c1.6,0,3-0.4,4.3-1.1l0.9-0.5l21.7-12.5L-244.6-70.6z"/>
		
			<linearGradient id="SVGID_6_" gradientUnits="userSpaceOnUse" x1="-269.2" y1="722.9956" x2="-269.2" y2="672.7321" gradientTransform="matrix(1 0 0 1 0 -769.89)">
			<stop  offset="0" style="stop-color:#F9A61A"/>
			<stop  offset="1" style="stop-color:#F05A29"/>
		</linearGradient>
		<path class="st8" d="M-253.8-65.3l-13.1-7.6v-15.2l0,0l0,0l-16.5-9.6c-0.7,1.2-1.1,2.5-1.3,4v1.7v23.8v0.2c0,3.3,1.7,6.1,4.3,7.8
			l1,0.6l20.7,12l0.6,0.3c1.3,0.7,2.9,1.1,4.4,1.1L-253.8-65.3L-253.8-65.3z"/>
		<g>
			<path class="st4" d="M-215.1-91.4c0-1.9,0.9-2.7,2.7-2.7h6.8c4.5,0,6,3.1,6,6.9c0,3.5-1,5.1-3.2,6c2.6,0.9,3.1,2.6,3.1,5.7v2.9
				c0,1.5,0.3,2.8,0.3,4.2c0,0.8-0.7,1.6-2.4,1.6c-1.9,0-3-0.8-3-2.5l-0.2-6.8c-0.1-1.9-1-2.8-2.9-2.8h-2.1v9.6
				c0,1.6-1.2,2.6-2.5,2.6s-2.5-1-2.5-2.6L-215.1-91.4L-215.1-91.4z M-210.1-82.8h1.9c2,0,3.4-0.9,3.4-3.8c0-2.7-0.8-3.8-3.2-3.8
				h-2.1L-210.1-82.8L-210.1-82.8z"/>
			<path class="st4" d="M-196.5-79.5c0-5.1,0.7-8.4,6.9-8.4c4.7,0,6.3,2.6,6.3,7.9c0,1.8-0.2,3.2-2.5,3.2h-5.9v2
				c0,2.4,0.2,4.3,2,4.3c1,0,1.7-1,1.7-2.1c0.1-2,1-2.4,2.2-2.4c1.3,0,2.3,0.4,2.3,2.2c0,3.6-2.5,5.8-6.2,5.8
				c-6.1,0-6.9-3.3-6.9-8.4L-196.5-79.5L-196.5-79.5z M-187.9-80v-1.7c0-1.5-0.5-2.7-2-2.7s-2,1.2-2,2.7v1.7H-187.9z"/>
			<path class="st4" d="M-180.6-80.1c0-4.1,0.7-7.8,4.8-7.8c1.7,0,3.2,0.8,4,2.3h0.1v-6.3c0-1.9,0.9-2.7,2.3-2.7
				c1.4,0,2.3,0.8,2.3,2.7v22.2c0,1.9-0.9,2.7-2.3,2.7c-1.3,0-2.3-1-2.3-2.3h-0.1c-0.8,1.6-2.3,2.3-4,2.3c-4.1,0-4.8-3.7-4.8-7.8
				V-80.1z M-175.8-75.9c0,3.3,0.2,5.3,1.9,5.3c1.8,0,2.3-2,2.3-4.9v-3.8c0-4-1.2-4.9-2.2-4.9c-1.5,0-1.9,1.2-1.9,5.6L-175.8-75.9
				L-175.8-75.9z"/>
			<path class="st5" d="M-163.5-82.6c0-9.4,2.6-12.1,8.6-12.1c4.9,0,7.5,3,7.5,6.7c0,1.7-0.6,3-2.5,3s-2.4-0.8-2.7-3
				c-0.3-1.9-1-2.7-2.3-2.7c-2.3,0-3.4,1-3.4,9v1.5c0,6.4,0.1,9.6,3.2,9.6c1.3,0,2.4-1.2,2.5-2.7c0.1-3,0.6-4.1,2.7-4.1
				c1.7,0,2.5,1.1,2.5,2.9c0,5.6-3.3,7.8-8.1,7.8c-7.8,0-8-6.4-8-11.6V-82.6L-163.5-82.6z"/>
			<path class="st5" d="M-131.8-71.7c0,1.3,0.3,2.4,0.3,3c0,1.2-0.8,1.8-2.3,1.8c-1.2,0-2.4-0.6-2.4-2.6h-0.1
				c-0.8,1.8-2.5,2.5-4.1,2.5c-2.7,0-4.7-1.6-4.7-5.4c0-3,0.9-4.8,3.2-6l4-2.1c1-0.5,1.4-1.3,1.4-2.1c0-1.1-0.6-2-1.7-2
				c-1.6,0-2,0.8-2.2,2.4c-0.1,0.9-1,1.4-2.2,1.4c-1,0-2.4-0.5-2.4-1.9c0-3.5,2.8-5.3,6.3-5.3c6,0,6.7,2.7,6.7,5.9L-131.8-71.7
				L-131.8-71.7z M-136.3-77.8l-1.6,1.1c-2,1.4-2.4,2.1-2.4,3.8c0,1.5,0.6,2.4,1.6,2.4c1.5,0,2.4-1.6,2.4-3.7V-77.8z"/>
			<path class="st5" d="M-127.8-85.2c0-1.9,0.9-2.7,2.3-2.7s2.3,0.9,2.3,2.7h0.1c0.8-1.7,2.4-2.7,4-2.7c4.1,0,4.8,3.7,4.8,7.8v5.4
				c0,4.1-0.7,7.8-4.8,7.8c-1.7,0-3.2-0.7-4-2.3h-0.1v8.7c0,1.9-0.9,2.7-2.3,2.7s-2.3-0.9-2.3-2.7V-85.2z M-123.3-75.3
				c0,2.9,0.5,4.9,2.3,4.9c1.7,0,1.9-1.9,1.9-5.3v-2.8c0-4.4-0.4-5.6-1.9-5.6c-1.1,0-2.2,0.8-2.2,4.9v3.9H-123.3z"/>
			<path class="st5" d="M-108.3-94.7c1.4,0,2.6,1.1,2.6,2.6c0,1.4-1.2,2.6-2.6,2.6s-2.6-1.2-2.6-2.6S-109.8-94.7-108.3-94.7z
				 M-110.6-85.2c0-1.9,0.9-2.7,2.3-2.7s2.3,0.9,2.3,2.7v15.6c0,1.9-0.9,2.7-2.3,2.7s-2.3-0.9-2.3-2.7V-85.2z"/>
			<path class="st5" d="M-101.4-84.1h-0.5c-1.3,0-2-0.4-2-1.7c0-1.3,0.7-1.7,2-1.7h0.5v-3.4c0-1.9,0.9-2.7,2.3-2.7s2.3,0.9,2.3,2.7
				v3.4h1c1.3,0,2,0.4,2,1.7c0,1.2-0.7,1.7-2,1.7h-1v11.8c0,0.8,0.2,1.3,1.2,1.4c1,0,1.7,0.4,1.7,1.6c0,1.5-0.9,2.1-2.9,2.1
				c-3.5,0-4.6-1.8-4.6-3.7V-84.1z"/>
			<path class="st5" d="M-79.6-71.7c0,1.3,0.3,2.4,0.3,3c0,1.2-0.8,1.8-2.3,1.8c-1.2,0-2.4-0.6-2.4-2.6h-0.1
				c-0.8,1.8-2.5,2.5-4.1,2.5c-2.7,0-4.7-1.6-4.7-5.4c0-3,0.9-4.8,3.2-6l4-2.1c1-0.5,1.4-1.3,1.4-2.1c0-1.1-0.6-2-1.7-2
				c-1.6,0-2,0.8-2.2,2.4c-0.1,0.9-1,1.4-2.2,1.4c-1,0-2.4-0.5-2.4-1.9c0-3.5,2.8-5.3,6.3-5.3c6,0,6.7,2.7,6.7,5.9L-79.6-71.7
				L-79.6-71.7z M-84.2-77.8l-1.6,1.1c-2,1.4-2.4,2.1-2.4,3.8c0,1.5,0.6,2.4,1.6,2.4c1.5,0,2.4-1.6,2.4-3.7V-77.8z"/>
			<path class="st5" d="M-75.6-91.8c0-1.9,0.9-2.7,2.3-2.7s2.3,0.8,2.3,2.7v22.2c0,1.9-0.9,2.7-2.3,2.7s-2.3-0.9-2.3-2.7V-91.8z"/>
		</g>
	</g>
</g>
<g>
	<polygon class="st0" points="-469.7,156.4 -464.8,159.2 -447.9,169 -447.9,143.9 -464.8,153.6 	"/>
	
		<linearGradient id="SVGID_7_" gradientUnits="userSpaceOnUse" x1="-503.8334" y1="907.09" x2="-451.6273" y2="907.09" gradientTransform="matrix(1 0 0 1 0 -769.89)">
		<stop  offset="0" style="stop-color:#F9A61A"/>
		<stop  offset="1" style="stop-color:#F05A29"/>
	</linearGradient>
	<path class="st9" d="M-472,126l-0.2-0.1c-1.2-0.7-2.6-1-4.1-1s-2.8,0.4-4,1l-0.7,0.4l-19,11l-0.7,0.4c-1.2,0.8-2.2,1.8-2.9,3
		l15.2,8.8l0,0l12-6.9l0.1-0.1l0.1,0.1l8.3,4.8l16.4-9.4L-472,126z"/>
	
		<linearGradient id="SVGID_8_" gradientUnits="userSpaceOnUse" x1="-451.563" y1="946.69" x2="-476.0086" y2="946.69" gradientTransform="matrix(1 0 0 1 0 -769.89)">
		<stop  offset="0" style="stop-color:#F9A61A"/>
		<stop  offset="1" style="stop-color:#F05A29"/>
	</linearGradient>
	<path class="st10" d="M-468,165.6l-8.4,4.8l0,0l0,0V188c1.4,0,2.8-0.4,4-1l0.8-0.5l20-11.5L-468,165.6z"/>
	
		<linearGradient id="SVGID_9_" gradientUnits="userSpaceOnUse" x1="-490.6" y1="957.2437" x2="-490.6" y2="910.9814" gradientTransform="matrix(1 0 0 1 0 -769.89)">
		<stop  offset="0" style="stop-color:#F9A61A"/>
		<stop  offset="1" style="stop-color:#F05A29"/>
	</linearGradient>
	<path class="st11" d="M-476.4,170.4l-12.1-7v-14l0,0l0,0l-15.2-8.8c-0.6,1.1-1.1,2.3-1.2,3.7v1.6v21.9v0.2c0,3,1.6,5.7,3.9,7.2
		l0.9,0.5l19.1,11l0.6,0.3c1.2,0.6,2.6,1,4.1,1L-476.4,170.4L-476.4,170.4z"/>
</g>
<polygon class="st12" points="-545.7,35 -540.4,38 -522,48.6 -522,21.4 -540.4,32 "/>
<linearGradient id="SVGID_10_" gradientUnits="userSpaceOnUse" x1="-582.8" y1="784.04" x2="-526.1" y2="784.04" gradientTransform="matrix(1 0 0 1 0 -769.89)">
	<stop  offset="0" style="stop-color:#EDEDED"/>
	<stop  offset="1" style="stop-color:#B2B2B2"/>
</linearGradient>
<path class="st13" d="M-548.2,2l-0.3-0.1c-1.3-0.7-2.9-1.1-4.5-1.1s-3.1,0.4-4.4,1.1l-0.8,0.4l-20.7,11.9l-0.8,0.5
	c-1.3,0.8-2.3,1.9-3.1,3.2l16.6,9.6l0,0l13-7.5l0.1-0.1l0.1,0.1l9,5.2l17.9-10.3L-548.2,2z"/>
<linearGradient id="SVGID_11_" gradientUnits="userSpaceOnUse" x1="-526.032" y1="826.94" x2="-552.5919" y2="826.94" gradientTransform="matrix(1 0 0 1 0 -769.89)">
	<stop  offset="0" style="stop-color:#EDEDED"/>
	<stop  offset="1" style="stop-color:#B2B2B2"/>
</linearGradient>
<path class="st14" d="M-543.9,44.9l-9.1,5.2h-0.1l0,0v19.1c1.6,0,3-0.4,4.3-1.1l0.9-0.5l21.7-12.5L-543.9,44.9z"/>
<linearGradient id="SVGID_12_" gradientUnits="userSpaceOnUse" x1="-568.4" y1="838.4956" x2="-568.4" y2="788.2321" gradientTransform="matrix(1 0 0 1 0 -769.89)">
	<stop  offset="0" style="stop-color:#EDEDED"/>
	<stop  offset="1" style="stop-color:#B2B2B2"/>
</linearGradient>
<path class="st15" d="M-553,50.2l-13.1-7.6V27.4l0,0l0,0l-16.5-9.6c-0.7,1.2-1.1,2.5-1.3,4v1.7v23.8v0.2c0,3.3,1.7,6.1,4.3,7.8
	l1,0.6l20.7,12l0.6,0.3c1.3,0.7,2.9,1.1,4.4,1.1L-553,50.2L-553,50.2z"/>
<path class="st12" d="M-514.4,24.1c0-1.9,0.9-2.7,2.7-2.7h6.8c4.5,0,6,3.1,6,6.9c0,3.5-1,5.1-3.2,6c2.6,0.9,3.1,2.6,3.1,5.7v2.9
	c0,1.5,0.3,2.8,0.3,4.2c0,0.8-0.7,1.6-2.4,1.6c-1.9,0-3-0.8-3-2.5l-0.2-6.8c-0.1-1.9-1-2.8-2.9-2.8h-2.1v9.6c0,1.6-1.2,2.6-2.5,2.6
	s-2.5-1-2.5-2.6L-514.4,24.1L-514.4,24.1z M-509.4,32.7h1.9c2,0,3.4-0.9,3.4-3.8c0-2.7-0.8-3.8-3.2-3.8h-2.1L-509.4,32.7
	L-509.4,32.7z"/>
<path class="st12" d="M-495.8,36c0-5.1,0.7-8.4,6.9-8.4c4.7,0,6.3,2.6,6.3,7.9c0,1.8-0.2,3.2-2.5,3.2h-5.9v2c0,2.4,0.2,4.3,2,4.3
	c1,0,1.7-1,1.7-2.1c0.1-2,1-2.4,2.2-2.4c1.3,0,2.3,0.4,2.3,2.2c0,3.6-2.5,5.8-6.2,5.8c-6.1,0-6.9-3.3-6.9-8.4L-495.8,36L-495.8,36z
	 M-487.1,35.5v-1.7c0-1.5-0.5-2.7-2-2.7s-2,1.2-2,2.7v1.7H-487.1z"/>
<path class="st12" d="M-479.8,35.4c0-4.1,0.7-7.8,4.8-7.8c1.7,0,3.2,0.8,4,2.3h0.1v-6.3c0-1.9,0.9-2.7,2.3-2.7s2.3,0.8,2.3,2.7v22.2
	c0,1.9-0.9,2.7-2.3,2.7c-1.3,0-2.3-1-2.3-2.3h-0.1c-0.8,1.6-2.3,2.3-4,2.3c-4.1,0-4.8-3.7-4.8-7.8V35.4z M-475.1,39.6
	c0,3.3,0.2,5.3,1.9,5.3c1.8,0,2.3-2,2.3-4.9v-3.8c0-4-1.2-4.9-2.2-4.9c-1.5,0-1.9,1.2-1.9,5.6L-475.1,39.6L-475.1,39.6z"/>
<path class="st16" d="M-462.7,32.9c0-9.4,2.6-12.1,8.6-12.1c4.9,0,7.5,3,7.5,6.7c0,1.7-0.6,3-2.5,3s-2.4-0.8-2.7-3
	c-0.3-1.9-1-2.7-2.3-2.7c-2.3,0-3.4,1-3.4,9v1.5c0,6.4,0.1,9.6,3.2,9.6c1.3,0,2.4-1.2,2.5-2.7c0.1-3,0.6-4.1,2.7-4.1
	c1.7,0,2.5,1.1,2.5,2.9c0,5.6-3.3,7.8-8.1,7.8c-7.8,0-8-6.4-8-11.6L-462.7,32.9L-462.7,32.9z"/>
<path class="st16" d="M-431,43.8c0,1.3,0.3,2.4,0.3,3c0,1.2-0.8,1.8-2.3,1.8c-1.2,0-2.4-0.6-2.4-2.6h-0.1c-0.8,1.8-2.5,2.5-4.1,2.5
	c-2.7,0-4.7-1.6-4.7-5.4c0-3,0.9-4.8,3.2-6l4-2.1c1-0.5,1.4-1.3,1.4-2.1c0-1.1-0.6-2-1.7-2c-1.6,0-2,0.8-2.2,2.4
	c-0.1,0.9-1,1.4-2.2,1.4c-1,0-2.4-0.5-2.4-1.9c0-3.5,2.8-5.3,6.3-5.3c6,0,6.7,2.7,6.7,5.9L-431,43.8L-431,43.8z M-435.6,37.7
	l-1.6,1.1c-2,1.4-2.4,2.1-2.4,3.8c0,1.5,0.6,2.4,1.6,2.4c1.5,0,2.4-1.6,2.4-3.7V37.7z"/>
<path class="st16" d="M-427,30.3c0-1.9,0.9-2.7,2.3-2.7s2.3,0.9,2.3,2.7h0.1c0.8-1.7,2.4-2.7,4-2.7c4.1,0,4.8,3.7,4.8,7.8v5.4
	c0,4.1-0.7,7.8-4.8,7.8c-1.7,0-3.2-0.7-4-2.3h-0.1V53c0,1.9-0.9,2.7-2.3,2.7s-2.3-0.9-2.3-2.7V30.3z M-422.5,40.2
	c0,2.9,0.5,4.9,2.3,4.9c1.7,0,1.9-1.9,1.9-5.3V37c0-4.4-0.4-5.6-1.9-5.6c-1.1,0-2.2,0.8-2.2,4.9L-422.5,40.2L-422.5,40.2z"/>
<path class="st16" d="M-407.6,20.8c1.4,0,2.6,1.1,2.6,2.6c0,1.4-1.1,2.6-2.6,2.6c-1.4,0-2.6-1.2-2.6-2.6S-409,20.8-407.6,20.8z
	 M-409.9,30.3c0-1.9,0.9-2.7,2.3-2.7s2.3,0.9,2.3,2.7v15.6c0,1.9-0.9,2.7-2.3,2.7s-2.3-0.9-2.3-2.7V30.3z"/>
<path class="st16" d="M-400.7,31.4h-0.5c-1.3,0-2-0.4-2-1.7c0-1.3,0.7-1.7,2-1.7h0.5v-3.4c0-1.9,0.9-2.7,2.3-2.7s2.3,0.9,2.3,2.7V28
	h1c1.3,0,2,0.4,2,1.7c0,1.2-0.7,1.7-2,1.7h-1v11.8c0,0.8,0.2,1.3,1.2,1.4c1,0,1.7,0.4,1.7,1.6c0,1.5-0.9,2.1-2.9,2.1
	c-3.5,0-4.6-1.8-4.6-3.7V31.4L-400.7,31.4z"/>
<path class="st16" d="M-378.9,43.8c0,1.3,0.3,2.4,0.3,3c0,1.2-0.8,1.8-2.3,1.8c-1.2,0-2.4-0.6-2.4-2.6h-0.1
	c-0.8,1.8-2.5,2.5-4.1,2.5c-2.7,0-4.7-1.6-4.7-5.4c0-3,0.9-4.8,3.2-6l4-2.1c1-0.5,1.4-1.3,1.4-2.1c0-1.1-0.6-2-1.7-2
	c-1.6,0-2,0.8-2.2,2.4c-0.1,0.9-1,1.4-2.2,1.4c-1,0-2.4-0.5-2.4-1.9c0-3.5,2.8-5.3,6.3-5.3c6,0,6.7,2.7,6.7,5.9L-378.9,43.8
	L-378.9,43.8z M-383.4,37.7l-1.6,1.1c-2,1.4-2.4,2.1-2.4,3.8c0,1.5,0.6,2.4,1.6,2.4c1.5,0,2.4-1.6,2.4-3.7V37.7z"/>
<path class="st16" d="M-374.9,23.7c0-1.9,0.9-2.7,2.3-2.7s2.3,0.8,2.3,2.7v22.2c0,1.9-0.9,2.7-2.3,2.7s-2.3-0.9-2.3-2.7V23.7z"/>
<polygon class="st12" points="-246.4,35 -241.2,38 -222.7,48.6 -222.8,21.4 -241.2,32 "/>
<linearGradient id="SVGID_13_" gradientUnits="userSpaceOnUse" x1="-283.6" y1="784.04" x2="-226.9" y2="784.04" gradientTransform="matrix(1 0 0 1 0 -769.89)">
	<stop  offset="0" style="stop-color:#EDEDED"/>
	<stop  offset="1" style="stop-color:#B2B2B2"/>
</linearGradient>
<path class="st17" d="M-249,2l-0.3-0.1c-1.3-0.7-2.9-1.1-4.5-1.1s-3.1,0.4-4.4,1.1l-0.8,0.4l-20.7,11.9l-0.8,0.5
	c-1.3,0.8-2.3,1.9-3.1,3.2l16.6,9.6l0,0l13-7.5l0.1-0.1l0.1,0.1l9,5.2l17.9-10.3L-249,2z"/>
<linearGradient id="SVGID_14_" gradientUnits="userSpaceOnUse" x1="-226.782" y1="826.94" x2="-253.3419" y2="826.94" gradientTransform="matrix(1 0 0 1 0 -769.89)">
	<stop  offset="0" style="stop-color:#EDEDED"/>
	<stop  offset="1" style="stop-color:#B2B2B2"/>
</linearGradient>
<path class="st18" d="M-244.6,44.9l-9.1,5.2h-0.1l0,0v19.1c1.6,0,3-0.4,4.3-1.1l0.9-0.5l21.7-12.5L-244.6,44.9z"/>
<linearGradient id="SVGID_15_" gradientUnits="userSpaceOnUse" x1="-269.2" y1="838.4956" x2="-269.2" y2="788.2321" gradientTransform="matrix(1 0 0 1 0 -769.89)">
	<stop  offset="0" style="stop-color:#EDEDED"/>
	<stop  offset="1" style="stop-color:#B2B2B2"/>
</linearGradient>
<path class="st19" d="M-253.8,50.2l-13.1-7.6V27.4l0,0l0,0l-16.5-9.6c-0.7,1.2-1.1,2.5-1.3,4v1.7v23.8v0.2c0,3.3,1.7,6.1,4.3,7.8
	l1,0.6l20.7,12l0.6,0.3c1.3,0.7,2.9,1.1,4.4,1.1L-253.8,50.2L-253.8,50.2z"/>
<path class="st12" d="M-215.1,24.1c0-1.9,0.9-2.7,2.7-2.7h6.8c4.5,0,6,3.1,6,6.9c0,3.5-1,5.1-3.2,6c2.6,0.9,3.1,2.6,3.1,5.7v2.9
	c0,1.5,0.3,2.8,0.3,4.2c0,0.8-0.7,1.6-2.4,1.6c-1.9,0-3-0.8-3-2.5l-0.2-6.8c-0.1-1.9-1-2.8-2.9-2.8h-2.1v9.6c0,1.6-1.2,2.6-2.5,2.6
	s-2.5-1-2.5-2.6L-215.1,24.1L-215.1,24.1z M-210.1,32.7h1.9c2,0,3.4-0.9,3.4-3.8c0-2.7-0.8-3.8-3.2-3.8h-2.1L-210.1,32.7
	L-210.1,32.7z"/>
<path class="st12" d="M-196.5,36c0-5.1,0.7-8.4,6.9-8.4c4.7,0,6.3,2.6,6.3,7.9c0,1.8-0.2,3.2-2.5,3.2h-5.9v2c0,2.4,0.2,4.3,2,4.3
	c1,0,1.7-1,1.7-2.1c0.1-2,1-2.4,2.2-2.4c1.3,0,2.3,0.4,2.3,2.2c0,3.6-2.5,5.8-6.2,5.8c-6.1,0-6.9-3.3-6.9-8.4L-196.5,36L-196.5,36z
	 M-187.9,35.5v-1.7c0-1.5-0.5-2.7-2-2.7s-2,1.2-2,2.7v1.7H-187.9z"/>
<path class="st12" d="M-180.6,35.4c0-4.1,0.7-7.8,4.8-7.8c1.7,0,3.2,0.8,4,2.3h0.1v-6.3c0-1.9,0.9-2.7,2.3-2.7
	c1.4,0,2.3,0.8,2.3,2.7v22.2c0,1.9-0.9,2.7-2.3,2.7c-1.3,0-2.3-1-2.3-2.3h-0.1c-0.8,1.6-2.3,2.3-4,2.3c-4.1,0-4.8-3.7-4.8-7.8V35.4z
	 M-175.8,39.6c0,3.3,0.2,5.3,1.9,5.3c1.8,0,2.3-2,2.3-4.9v-3.8c0-4-1.2-4.9-2.2-4.9c-1.5,0-1.9,1.2-1.9,5.6L-175.8,39.6L-175.8,39.6
	z"/>
<path class="st16" d="M-163.5,32.9c0-9.4,2.6-12.1,8.6-12.1c4.9,0,7.5,3,7.5,6.7c0,1.7-0.6,3-2.5,3s-2.4-0.8-2.7-3
	c-0.3-1.9-1-2.7-2.3-2.7c-2.3,0-3.4,1-3.4,9v1.5c0,6.4,0.1,9.6,3.2,9.6c1.3,0,2.4-1.2,2.5-2.7c0.1-3,0.6-4.1,2.7-4.1
	c1.7,0,2.5,1.1,2.5,2.9c0,5.6-3.3,7.8-8.1,7.8c-7.8,0-8-6.4-8-11.6V32.9L-163.5,32.9z"/>
<path class="st16" d="M-131.8,43.8c0,1.3,0.3,2.4,0.3,3c0,1.2-0.8,1.8-2.3,1.8c-1.2,0-2.4-0.6-2.4-2.6h-0.1
	c-0.8,1.8-2.5,2.5-4.1,2.5c-2.7,0-4.7-1.6-4.7-5.4c0-3,0.9-4.8,3.2-6l4-2.1c1-0.5,1.4-1.3,1.4-2.1c0-1.1-0.6-2-1.7-2
	c-1.6,0-2,0.8-2.2,2.4c-0.1,0.9-1,1.4-2.2,1.4c-1,0-2.4-0.5-2.4-1.9c0-3.5,2.8-5.3,6.3-5.3c6,0,6.7,2.7,6.7,5.9L-131.8,43.8
	L-131.8,43.8z M-136.3,37.7l-1.6,1.1c-2,1.4-2.4,2.1-2.4,3.8c0,1.5,0.6,2.4,1.6,2.4c1.5,0,2.4-1.6,2.4-3.7V37.7z"/>
<path class="st16" d="M-127.8,30.3c0-1.9,0.9-2.7,2.3-2.7s2.3,0.9,2.3,2.7h0.1c0.8-1.7,2.4-2.7,4-2.7c4.1,0,4.8,3.7,4.8,7.8v5.4
	c0,4.1-0.7,7.8-4.8,7.8c-1.7,0-3.2-0.7-4-2.3h-0.1V55c0,1.9-0.9,2.7-2.3,2.7s-2.3-0.9-2.3-2.7V30.3z M-123.3,40.2
	c0,2.9,0.5,4.9,2.3,4.9c1.7,0,1.9-1.9,1.9-5.3V37c0-4.4-0.4-5.6-1.9-5.6c-1.1,0-2.2,0.8-2.2,4.9v3.9H-123.3z"/>
<path class="st16" d="M-108.3,20.8c1.4,0,2.6,1.1,2.6,2.6c0,1.4-1.2,2.6-2.6,2.6s-2.6-1.2-2.6-2.6S-109.8,20.8-108.3,20.8z
	 M-110.6,30.3c0-1.9,0.9-2.7,2.3-2.7s2.3,0.9,2.3,2.7v15.6c0,1.9-0.9,2.7-2.3,2.7s-2.3-0.9-2.3-2.7V30.3z"/>
<path class="st16" d="M-101.4,31.4h-0.5c-1.3,0-2-0.4-2-1.7c0-1.3,0.7-1.7,2-1.7h0.5v-3.4c0-1.9,0.9-2.7,2.3-2.7s2.3,0.9,2.3,2.7V28
	h1c1.3,0,2,0.4,2,1.7c0,1.2-0.7,1.7-2,1.7h-1v11.8c0,0.8,0.2,1.3,1.2,1.4c1,0,1.7,0.4,1.7,1.6c0,1.5-0.9,2.1-2.9,2.1
	c-3.5,0-4.6-1.8-4.6-3.7V31.4z"/>
<path class="st16" d="M-79.6,43.8c0,1.3,0.3,2.4,0.3,3c0,1.2-0.8,1.8-2.3,1.8c-1.2,0-2.4-0.6-2.4-2.6h-0.1c-0.8,1.8-2.5,2.5-4.1,2.5
	c-2.7,0-4.7-1.6-4.7-5.4c0-3,0.9-4.8,3.2-6l4-2.1c1-0.5,1.4-1.3,1.4-2.1c0-1.1-0.6-2-1.7-2c-1.6,0-2,0.8-2.2,2.4
	c-0.1,0.9-1,1.4-2.2,1.4c-1,0-2.4-0.5-2.4-1.9c0-3.5,2.8-5.3,6.3-5.3c6,0,6.7,2.7,6.7,5.9L-79.6,43.8L-79.6,43.8z M-84.2,37.7
	l-1.6,1.1c-2,1.4-2.4,2.1-2.4,3.8c0,1.5,0.6,2.4,1.6,2.4c1.5,0,2.4-1.6,2.4-3.7V37.7z"/>
<path class="st16" d="M-75.6,23.7c0-1.9,0.9-2.7,2.3-2.7s2.3,0.8,2.3,2.7v22.2c0,1.9-0.9,2.7-2.3,2.7s-2.3-0.9-2.3-2.7V23.7z"/>
<g>
	<path class="st12" d="M-211,57.7h-0.9l-0.6-3l0,0l-0.6,3h-0.9l-1.2-5.1h1.1l0.6,3.2l0,0l0.6-3.2h0.8l0.5,3.2l0,0l0.6-3.2h1.1
		L-211,57.7z"/>
	<path class="st12" d="M-203.9,57.7h-0.9l-0.6-3l0,0l-0.6,3h-0.9l-1.2-5.1h1.1l0.6,3.2l0,0l0.6-3.2h0.8l0.5,3.2l0,0l0.6-3.2h1.1
		L-203.9,57.7z"/>
	<path class="st12" d="M-196.8,57.7h-0.9l-0.6-3l0,0l-0.6,3h-0.9l-1.2-5.1h1.1l0.6,3.2l0,0l0.6-3.2h0.8l0.5,3.2l0,0l0.6-3.2h1.1
		L-196.8,57.7z"/>
	<path class="st12" d="M-193.9,56.6h1v1h-1V56.6z"/>
	<path class="st12" d="M-190.3,52.6h1v0.5c0.2-0.2,0.4-0.3,0.6-0.4s0.4-0.2,0.7-0.2v1.1c-0.1,0-0.2-0.1-0.3-0.1s-0.2,0-0.3,0.1
		c-0.1,0-0.2,0.1-0.3,0.2s-0.2,0.2-0.3,0.3s-0.1,0.3-0.1,0.5v3h-1L-190.3,52.6L-190.3,52.6z"/>
	<path class="st12" d="M-184.9,55.5v0.7c0,0.2,0,0.3,0.1,0.4c0.1,0.1,0.2,0.1,0.4,0.1s0.3-0.1,0.4-0.2c0.1-0.1,0.1-0.2,0.1-0.3h1
		c0,0.2,0,0.4-0.1,0.6c-0.1,0.2-0.2,0.3-0.3,0.5c-0.1,0.1-0.3,0.3-0.5,0.3c-0.2,0.1-0.4,0.1-0.6,0.1c-0.3,0-0.6-0.1-0.8-0.2
		c-0.2-0.1-0.4-0.3-0.5-0.5c-0.1-0.1-0.1-0.3-0.1-0.5s0-0.4,0-0.6v-1.7c0-0.2,0-0.4,0-0.6c0-0.2,0.1-0.3,0.1-0.5
		c0.1-0.2,0.3-0.4,0.5-0.5s0.5-0.2,0.8-0.2c0.2,0,0.4,0,0.6,0.1c0.2,0.1,0.4,0.2,0.5,0.3s0.2,0.3,0.3,0.5s0.1,0.4,0.1,0.6v1.4h-2
		V55.5z M-184.9,54.7h1v-0.6c0-0.2,0-0.3-0.1-0.4s-0.2-0.1-0.4-0.1s-0.3,0-0.4,0.1c-0.1,0.1-0.1,0.2-0.1,0.4V54.7z"/>
	<path class="st12" d="M-178.4,57.2c-0.1,0.1-0.1,0.1-0.2,0.2c-0.1,0.1-0.1,0.1-0.2,0.2s-0.2,0.1-0.3,0.1s-0.2,0-0.3,0
		c-0.4,0-0.7-0.2-0.9-0.5c-0.1-0.1-0.1-0.3-0.1-0.4s0-0.4,0-0.7v-1.9c0-0.4,0-0.6,0-0.8s0.1-0.3,0.1-0.4c0.1-0.1,0.2-0.2,0.3-0.3
		s0.3-0.1,0.6-0.1c0.2,0,0.4,0,0.5,0.1c0.2,0.1,0.3,0.2,0.4,0.4l0,0v-2.5h1v7.1h-1L-178.4,57.2L-178.4,57.2z M-179.4,56
		c0,0.2,0,0.4,0.1,0.5s0.2,0.2,0.4,0.2s0.3-0.1,0.4-0.2c0.1-0.1,0.1-0.3,0.1-0.5v-2c0-0.2,0-0.3-0.1-0.4s-0.2-0.2-0.4-0.2
		s-0.3,0.1-0.4,0.2s-0.1,0.3-0.1,0.4V56L-179.4,56z"/>
	<path class="st12" d="M-173.8,56.2c0,0.2,0,0.3,0.1,0.4s0.2,0.1,0.4,0.1s0.3-0.1,0.4-0.2s0.1-0.2,0.1-0.3h1c0,0.2,0,0.4-0.1,0.6
		s-0.2,0.3-0.3,0.5c-0.1,0.1-0.3,0.3-0.5,0.3c-0.2,0.1-0.4,0.1-0.6,0.1c-0.3,0-0.6-0.1-0.8-0.2c-0.2-0.1-0.4-0.3-0.5-0.5
		c-0.1-0.1-0.1-0.3-0.1-0.5s0-0.4,0-0.6v-1.7c0-0.2,0-0.4,0-0.6c0-0.2,0.1-0.3,0.1-0.5c0.1-0.2,0.3-0.4,0.5-0.5s0.5-0.2,0.8-0.2
		c0.2,0,0.4,0,0.6,0.1c0.2,0.1,0.4,0.2,0.5,0.3s0.2,0.3,0.3,0.5s0.1,0.4,0.1,0.7h-1c0-0.2,0-0.4-0.1-0.5s-0.2-0.1-0.4-0.1
		s-0.3,0-0.4,0.1s-0.1,0.2-0.1,0.4V56.2z"/>
	<path class="st12" d="M-167.5,57.1L-167.5,57.1c-0.2,0.2-0.3,0.3-0.4,0.4c-0.1,0.1-0.3,0.1-0.6,0.1c-0.1,0-0.2,0-0.4-0.1
		c-0.1,0-0.2-0.1-0.4-0.2s-0.2-0.2-0.3-0.4s-0.1-0.4-0.1-0.7s0-0.5,0.1-0.8c0-0.2,0.1-0.4,0.3-0.5c0.1-0.1,0.3-0.3,0.5-0.3
		c0.2-0.1,0.5-0.1,0.8-0.1c0.1,0,0.1,0,0.2,0s0.2,0,0.3,0V54c0-0.2,0-0.3-0.1-0.4c-0.1-0.1-0.2-0.2-0.4-0.2c-0.1,0-0.3,0-0.4,0.1
		c-0.1,0.1-0.2,0.2-0.2,0.4h-1c0-0.5,0.2-0.8,0.5-1.1c0.1-0.1,0.3-0.2,0.5-0.3s0.4-0.1,0.6-0.1c0.2,0,0.4,0,0.6,0.1
		c0.2,0.1,0.3,0.2,0.5,0.3c0.1,0.1,0.2,0.3,0.3,0.5s0.1,0.4,0.1,0.7v3.5h-1L-167.5,57.1L-167.5,57.1z M-167.5,55.5
		c-0.1,0-0.2,0-0.3,0c-0.2,0-0.4,0.1-0.6,0.2s-0.2,0.3-0.2,0.6c0,0.2,0,0.4,0.1,0.5s0.2,0.2,0.4,0.2s0.3-0.1,0.4-0.2
		s0.1-0.3,0.1-0.5L-167.5,55.5L-167.5,55.5z"/>
	<path class="st12" d="M-164.1,52.6h1v0.5c0.1-0.1,0.3-0.3,0.4-0.4c0.1-0.1,0.3-0.1,0.6-0.1c0.4,0,0.7,0.2,0.9,0.5
		c0.1,0.1,0.1,0.3,0.1,0.4c0,0.2,0,0.4,0,0.7V56c0,0.4,0,0.6,0,0.8s-0.1,0.3-0.1,0.4c-0.1,0.1-0.2,0.2-0.3,0.3s-0.3,0.1-0.6,0.1
		c-0.2,0-0.4,0-0.5-0.1c-0.2-0.1-0.3-0.2-0.4-0.4l0,0v2.5h-1L-164.1,52.6L-164.1,52.6z M-162,54.2c0-0.2,0-0.4-0.1-0.5
		s-0.2-0.2-0.4-0.2s-0.3,0.1-0.4,0.2c-0.1,0.1-0.1,0.3-0.1,0.5v2c0,0.2,0,0.3,0.1,0.4s0.2,0.2,0.4,0.2s0.3-0.1,0.4-0.2
		s0.1-0.3,0.1-0.4V54.2L-162,54.2z"/>
	<path class="st12" d="M-158.5,50.5h1v1h-1V50.5z M-158.5,52.6h1v5.1h-1V52.6z"/>
	<path class="st12" d="M-154.9,51.1h1v1.5h0.6v0.8h-0.6v2.8c0,0.1,0,0.2,0,0.3s0.1,0.1,0.1,0.1c0.1,0,0.1,0.1,0.2,0.1s0.2,0,0.3,0v1
		h-0.4c-0.2,0-0.4,0-0.6-0.1c-0.2-0.1-0.3-0.2-0.4-0.3c-0.1-0.1-0.2-0.2-0.2-0.4c0-0.1-0.1-0.3-0.1-0.4v-3.1h-0.5v-0.8h0.5
		L-154.9,51.1L-154.9,51.1z"/>
	<path class="st12" d="M-149.2,57.1L-149.2,57.1c-0.2,0.2-0.3,0.3-0.4,0.4c-0.1,0.1-0.3,0.1-0.6,0.1c-0.1,0-0.2,0-0.4-0.1
		c-0.1,0-0.2-0.1-0.4-0.2s-0.2-0.2-0.3-0.4s-0.1-0.4-0.1-0.7s0-0.5,0.1-0.8c0-0.2,0.1-0.4,0.3-0.5c0.1-0.1,0.3-0.3,0.5-0.3
		c0.2-0.1,0.5-0.1,0.8-0.1c0.1,0,0.1,0,0.2,0s0.2,0,0.3,0V54c0-0.2,0-0.3-0.1-0.4c-0.1-0.1-0.2-0.2-0.4-0.2c-0.1,0-0.3,0-0.4,0.1
		c-0.1,0.1-0.2,0.2-0.2,0.4h-1c0-0.5,0.2-0.8,0.5-1.1c0.1-0.1,0.3-0.2,0.5-0.3s0.4-0.1,0.6-0.1c0.2,0,0.4,0,0.6,0.1
		c0.2,0.1,0.3,0.2,0.5,0.3c0.1,0.1,0.2,0.3,0.3,0.5s0.1,0.4,0.1,0.7v3.5h-1L-149.2,57.1L-149.2,57.1z M-149.2,55.5
		c-0.1,0-0.2,0-0.3,0c-0.2,0-0.4,0.1-0.6,0.2s-0.2,0.3-0.2,0.6c0,0.2,0,0.4,0.1,0.5s0.2,0.2,0.4,0.2s0.3-0.1,0.4-0.2
		s0.1-0.3,0.1-0.5L-149.2,55.5L-149.2,55.5z"/>
	<path class="st12" d="M-145.8,50.5h1v5.7c0,0.2,0,0.3,0.1,0.4c0.1,0.1,0.2,0.1,0.4,0.1v1c-0.2,0-0.4,0-0.6-0.1
		c-0.2,0-0.4-0.1-0.5-0.2s-0.2-0.2-0.3-0.4s-0.1-0.4-0.1-0.7L-145.8,50.5L-145.8,50.5z"/>
	<path class="st12" d="M-142.2,56.6h1v1h-1V56.6z"/>
	<path class="st12" d="M-137.6,56.2c0,0.2,0,0.3,0.1,0.4s0.2,0.1,0.4,0.1s0.3-0.1,0.4-0.2s0.1-0.2,0.1-0.3h1c0,0.2,0,0.4-0.1,0.6
		s-0.2,0.3-0.3,0.5c-0.1,0.1-0.3,0.3-0.5,0.3c-0.2,0.1-0.4,0.1-0.6,0.1c-0.3,0-0.6-0.1-0.8-0.2c-0.2-0.1-0.4-0.3-0.5-0.5
		c-0.1-0.1-0.1-0.3-0.1-0.5s0-0.4,0-0.6v-1.7c0-0.2,0-0.4,0-0.6c0-0.2,0.1-0.3,0.1-0.5c0.1-0.2,0.3-0.4,0.5-0.5s0.5-0.2,0.8-0.2
		c0.2,0,0.4,0,0.6,0.1c0.2,0.1,0.4,0.2,0.5,0.3s0.2,0.3,0.3,0.5s0.1,0.4,0.1,0.7h-1c0-0.2,0-0.4-0.1-0.5s-0.2-0.1-0.4-0.1
		s-0.3,0-0.4,0.1s-0.1,0.2-0.1,0.4V56.2z"/>
	<path class="st12" d="M-133.4,50.5h1v5.7c0,0.2,0,0.3,0.1,0.4c0.1,0.1,0.2,0.1,0.4,0.1v1c-0.2,0-0.4,0-0.6-0.1
		c-0.2,0-0.4-0.1-0.5-0.2s-0.2-0.2-0.3-0.4s-0.1-0.4-0.1-0.7L-133.4,50.5L-133.4,50.5z"/>
</g>
<polygon class="st20" points="40.5,35 45.7,38 64.2,48.6 64.1,21.4 45.7,32 "/>
<path class="st20" d="M37.9,2l-0.3-0.1c-1.3-0.7-2.9-1.1-4.5-1.1c-1.6,0-3.1,0.4-4.4,1.1L28,2.2L7.4,14.1l-0.8,0.5
	c-1.3,0.8-2.3,1.9-3.1,3.2L20,27.4l0,0l13-7.5l0.1-0.1l0.1,0.1l9,5.2l17.9-10.3L37.9,2z"/>
<path class="st20" d="M42.3,44.9l-9.1,5.2h-0.1l0,0v19.1c1.6,0,3-0.4,4.3-1.1l0.9-0.5L60,55.1L42.3,44.9z"/>
<path class="st20" d="M33.1,50.2L20,42.6V27.4l0,0l0,0L3.5,17.8c-0.7,1.2-1.1,2.5-1.3,4v1.7v23.8v0.2c0,3.3,1.7,6.1,4.3,7.8l1,0.6
	l20.7,12l0.6,0.3c1.3,0.7,2.9,1.1,4.4,1.1L33.1,50.2L33.1,50.2z"/>
<path class="st20" d="M71.8,24.1c0-1.9,0.9-2.7,2.7-2.7h6.8c4.5,0,6,3.1,6,6.9c0,3.5-1,5.1-3.2,6c2.6,0.9,3.1,2.6,3.1,5.7v2.9
	c0,1.5,0.3,2.8,0.3,4.2c0,0.8-0.7,1.6-2.4,1.6c-1.9,0-3-0.8-3-2.5l-0.2-6.8c-0.1-1.9-1-2.8-2.9-2.8h-2.1v9.6c0,1.6-1.2,2.6-2.5,2.6
	s-2.5-1-2.5-2.6L71.8,24.1L71.8,24.1z M76.8,32.7h1.9c2,0,3.4-0.9,3.4-3.8c0-2.7-0.8-3.8-3.2-3.8h-2.1L76.8,32.7L76.8,32.7z"/>
<path class="st20" d="M90.4,36c0-5.1,0.7-8.4,6.9-8.4c4.7,0,6.3,2.6,6.3,7.9c0,1.8-0.2,3.2-2.5,3.2h-5.9v2c0,2.4,0.2,4.3,2,4.3
	c1,0,1.7-1,1.7-2.1c0.1-2,1-2.4,2.2-2.4c1.3,0,2.3,0.4,2.3,2.2c0,3.6-2.5,5.8-6.2,5.8c-6.1,0-6.9-3.3-6.9-8.4L90.4,36L90.4,36z
	 M99,35.5v-1.7c0-1.5-0.5-2.7-2-2.7s-2,1.2-2,2.7v1.7H99z"/>
<path class="st20" d="M106.3,35.4c0-4.1,0.7-7.8,4.8-7.8c1.7,0,3.2,0.8,4,2.3h0.1v-6.3c0-1.9,0.9-2.7,2.3-2.7s2.3,0.8,2.3,2.7v22.2
	c0,1.9-0.9,2.7-2.3,2.7c-1.3,0-2.3-1-2.3-2.3h-0.1c-0.8,1.6-2.3,2.3-4,2.3c-4.1,0-4.8-3.7-4.8-7.8C106.3,40.8,106.3,35.4,106.3,35.4
	z M111.1,39.6c0,3.3,0.2,5.3,1.9,5.3c1.8,0,2.3-2,2.3-4.9v-3.8c0-4-1.2-4.9-2.2-4.9c-1.5,0-1.9,1.2-1.9,5.6L111.1,39.6L111.1,39.6z"
	/>
<path class="st20" d="M123.4,32.9c0-9.4,2.6-12.1,8.6-12.1c4.9,0,7.5,3,7.5,6.7c0,1.7-0.6,3-2.5,3s-2.4-0.8-2.7-3
	c-0.3-1.9-1-2.7-2.3-2.7c-2.3,0-3.4,1-3.4,9v1.5c0,6.4,0.1,9.6,3.2,9.6c1.3,0,2.4-1.2,2.5-2.7c0.1-3,0.6-4.1,2.7-4.1
	c1.7,0,2.5,1.1,2.5,2.9c0,5.6-3.3,7.8-8.1,7.8c-7.8,0-8-6.4-8-11.6C123.4,37.2,123.4,32.9,123.4,32.9z"/>
<path class="st20" d="M155.1,43.8c0,1.3,0.3,2.4,0.3,3c0,1.2-0.8,1.8-2.3,1.8c-1.2,0-2.4-0.6-2.4-2.6h-0.1c-0.8,1.8-2.5,2.5-4.1,2.5
	c-2.7,0-4.7-1.6-4.7-5.4c0-3,0.9-4.8,3.2-6l4-2.1c1-0.5,1.4-1.3,1.4-2.1c0-1.1-0.6-2-1.7-2c-1.6,0-2,0.8-2.2,2.4
	c-0.1,0.9-1,1.4-2.2,1.4c-1,0-2.4-0.5-2.4-1.9c0-3.5,2.8-5.3,6.3-5.3c6,0,6.7,2.7,6.7,5.9L155.1,43.8L155.1,43.8z M150.6,37.7
	l-1.6,1.1c-2,1.4-2.4,2.1-2.4,3.8c0,1.5,0.6,2.4,1.6,2.4c1.5,0,2.4-1.6,2.4-3.7V37.7z"/>
<path class="st20" d="M159.1,30.3c0-1.9,0.9-2.7,2.3-2.7c1.4,0,2.3,0.9,2.3,2.7h0.1c0.8-1.7,2.4-2.7,4-2.7c4.1,0,4.8,3.7,4.8,7.8
	v5.4c0,4.1-0.7,7.8-4.8,7.8c-1.7,0-3.2-0.7-4-2.3h-0.1V53c0,1.9-0.9,2.7-2.3,2.7c-1.4,0-2.3-0.9-2.3-2.7V30.3z M163.6,40.2
	c0,2.9,0.5,4.9,2.3,4.9c1.7,0,1.9-1.9,1.9-5.3V37c0-4.4-0.4-5.6-1.9-5.6c-1.1,0-2.2,0.8-2.2,4.9v3.9H163.6z"/>
<path class="st20" d="M178.6,20.8c1.4,0,2.6,1.1,2.6,2.6c0,1.4-1.1,2.6-2.6,2.6c-1.4,0-2.6-1.2-2.6-2.6S177.1,20.8,178.6,20.8z
	 M176.3,30.3c0-1.9,0.9-2.7,2.3-2.7c1.4,0,2.3,0.9,2.3,2.7v15.6c0,1.9-0.9,2.7-2.3,2.7c-1.4,0-2.3-0.9-2.3-2.7V30.3z"/>
<path class="st20" d="M185.5,31.4H185c-1.3,0-2-0.4-2-1.7c0-1.3,0.7-1.7,2-1.7h0.5v-3.4c0-1.9,0.9-2.7,2.3-2.7
	c1.4,0,2.3,0.9,2.3,2.7V28h1c1.3,0,2,0.4,2,1.7c0,1.2-0.7,1.7-2,1.7h-1v11.8c0,0.8,0.2,1.3,1.2,1.4c1,0,1.7,0.4,1.7,1.6
	c0,1.5-0.9,2.1-2.9,2.1c-3.5,0-4.6-1.8-4.6-3.7V31.4z"/>
<path class="st20" d="M207.3,43.8c0,1.3,0.3,2.4,0.3,3c0,1.2-0.8,1.8-2.3,1.8c-1.2,0-2.4-0.6-2.4-2.6h-0.1c-0.8,1.8-2.5,2.5-4.1,2.5
	c-2.7,0-4.7-1.6-4.7-5.4c0-3,0.9-4.8,3.2-6l4-2.1c1-0.5,1.4-1.3,1.4-2.1c0-1.1-0.6-2-1.7-2c-1.6,0-2,0.8-2.2,2.4
	c-0.1,0.9-1,1.4-2.2,1.4c-1,0-2.4-0.5-2.4-1.9c0-3.5,2.8-5.3,6.3-5.3c6,0,6.7,2.7,6.7,5.9L207.3,43.8L207.3,43.8z M202.7,37.7
	l-1.6,1.1c-2,1.4-2.4,2.1-2.4,3.8c0,1.5,0.6,2.4,1.6,2.4c1.5,0,2.4-1.6,2.4-3.7V37.7z"/>
<path class="st20" d="M211.3,23.7c0-1.9,0.9-2.7,2.3-2.7c1.4,0,2.3,0.8,2.3,2.7v22.2c0,1.9-0.9,2.7-2.3,2.7c-1.4,0-2.3-0.9-2.3-2.7
	V23.7z"/>
<g>
	<path class="st4" d="M-211-57.8h-0.9l-0.6-3l0,0l-0.6,3h-0.9l-1.2-5.1h1.1l0.6,3.2l0,0l0.6-3.2h0.8l0.5,3.2l0,0l0.6-3.2h1.1
		L-211-57.8z"/>
	<path class="st4" d="M-203.9-57.8h-0.9l-0.6-3l0,0l-0.6,3h-0.9l-1.2-5.1h1.1l0.6,3.2l0,0l0.6-3.2h0.8l0.5,3.2l0,0l0.6-3.2h1.1
		L-203.9-57.8z"/>
	<path class="st4" d="M-196.8-57.8h-0.9l-0.6-3l0,0l-0.6,3h-0.9l-1.2-5.1h1.1l0.6,3.2l0,0l0.6-3.2h0.8l0.5,3.2l0,0l0.6-3.2h1.1
		L-196.8-57.8z"/>
	<path class="st4" d="M-193.9-58.9h1v1h-1V-58.9z"/>
	<path class="st4" d="M-190.3-62.9h1v0.5c0.2-0.2,0.4-0.3,0.6-0.4s0.4-0.2,0.7-0.2v1.1c-0.1,0-0.2-0.1-0.3-0.1s-0.2,0-0.3,0.1
		c-0.1,0-0.2,0.1-0.3,0.2s-0.2,0.2-0.3,0.3s-0.1,0.3-0.1,0.5v3h-1L-190.3-62.9L-190.3-62.9z"/>
	<path class="st4" d="M-184.9-60v0.7c0,0.2,0,0.3,0.1,0.4c0.1,0.1,0.2,0.1,0.4,0.1s0.3-0.1,0.4-0.2c0.1-0.1,0.1-0.2,0.1-0.3h1
		c0,0.2,0,0.4-0.1,0.6c-0.1,0.2-0.2,0.3-0.3,0.5c-0.1,0.1-0.3,0.3-0.5,0.3c-0.2,0.1-0.4,0.1-0.6,0.1c-0.3,0-0.6-0.1-0.8-0.2
		c-0.2-0.1-0.4-0.3-0.5-0.5c-0.1-0.1-0.1-0.3-0.1-0.5s0-0.4,0-0.6v-1.7c0-0.2,0-0.4,0-0.6c0-0.2,0.1-0.3,0.1-0.5
		c0.1-0.2,0.3-0.4,0.5-0.5s0.5-0.2,0.8-0.2c0.2,0,0.4,0,0.6,0.1c0.2,0.1,0.4,0.2,0.5,0.3s0.2,0.3,0.3,0.5s0.1,0.4,0.1,0.6v1.4h-2
		V-60z M-184.9-60.8h1v-0.6c0-0.2,0-0.3-0.1-0.4s-0.2-0.1-0.4-0.1s-0.3,0-0.4,0.1c-0.1,0.1-0.1,0.2-0.1,0.4V-60.8z"/>
	<path class="st4" d="M-178.4-58.3c-0.1,0.1-0.1,0.1-0.2,0.2c-0.1,0.1-0.1,0.1-0.2,0.2s-0.2,0.1-0.3,0.1s-0.2,0-0.3,0
		c-0.4,0-0.7-0.2-0.9-0.5c-0.1-0.1-0.1-0.3-0.1-0.4s0-0.4,0-0.7v-1.9c0-0.4,0-0.6,0-0.8s0.1-0.3,0.1-0.4c0.1-0.1,0.2-0.2,0.3-0.3
		s0.3-0.1,0.6-0.1c0.2,0,0.4,0,0.5,0.1c0.2,0.1,0.3,0.2,0.4,0.4l0,0V-65h1v7.1h-1L-178.4-58.3L-178.4-58.3z M-179.4-59.5
		c0,0.2,0,0.4,0.1,0.5s0.2,0.2,0.4,0.2s0.3-0.1,0.4-0.2c0.1-0.1,0.1-0.3,0.1-0.5v-2c0-0.2,0-0.3-0.1-0.4s-0.2-0.2-0.4-0.2
		s-0.3,0.1-0.4,0.2s-0.1,0.3-0.1,0.4V-59.5L-179.4-59.5z"/>
	<path class="st4" d="M-173.8-59.3c0,0.2,0,0.3,0.1,0.4s0.2,0.1,0.4,0.1s0.3-0.1,0.4-0.2s0.1-0.2,0.1-0.3h1c0,0.2,0,0.4-0.1,0.6
		s-0.2,0.3-0.3,0.5c-0.1,0.1-0.3,0.3-0.5,0.3c-0.2,0.1-0.4,0.1-0.6,0.1c-0.3,0-0.6-0.1-0.8-0.2c-0.2-0.1-0.4-0.3-0.5-0.5
		c-0.1-0.1-0.1-0.3-0.1-0.5s0-0.4,0-0.6v-1.7c0-0.2,0-0.4,0-0.6c0-0.2,0.1-0.3,0.1-0.5c0.1-0.2,0.3-0.4,0.5-0.5s0.5-0.2,0.8-0.2
		c0.2,0,0.4,0,0.6,0.1c0.2,0.1,0.4,0.2,0.5,0.3s0.2,0.3,0.3,0.5s0.1,0.4,0.1,0.7h-1c0-0.2,0-0.4-0.1-0.5s-0.2-0.1-0.4-0.1
		s-0.3,0-0.4,0.1s-0.1,0.2-0.1,0.4V-59.3z"/>
	<path class="st4" d="M-167.5-58.4L-167.5-58.4c-0.2,0.2-0.3,0.3-0.4,0.4c-0.1,0.1-0.3,0.1-0.6,0.1c-0.1,0-0.2,0-0.4-0.1
		c-0.1,0-0.2-0.1-0.4-0.2s-0.2-0.2-0.3-0.4s-0.1-0.4-0.1-0.7s0-0.5,0.1-0.8c0-0.2,0.1-0.4,0.3-0.5c0.1-0.1,0.3-0.3,0.5-0.3
		c0.2-0.1,0.5-0.1,0.8-0.1c0.1,0,0.1,0,0.2,0s0.2,0,0.3,0v-0.5c0-0.2,0-0.3-0.1-0.4c-0.1-0.1-0.2-0.2-0.4-0.2c-0.1,0-0.3,0-0.4,0.1
		c-0.1,0.1-0.2,0.2-0.2,0.4h-1c0-0.5,0.2-0.8,0.5-1.1c0.1-0.1,0.3-0.2,0.5-0.3s0.4-0.1,0.6-0.1c0.2,0,0.4,0,0.6,0.1
		c0.2,0.1,0.3,0.2,0.5,0.3c0.1,0.1,0.2,0.3,0.3,0.5s0.1,0.4,0.1,0.7v3.5h-1L-167.5-58.4L-167.5-58.4z M-167.5-60c-0.1,0-0.2,0-0.3,0
		c-0.2,0-0.4,0.1-0.6,0.2s-0.2,0.3-0.2,0.6c0,0.2,0,0.4,0.1,0.5s0.2,0.2,0.4,0.2s0.3-0.1,0.4-0.2s0.1-0.3,0.1-0.5L-167.5-60
		L-167.5-60z"/>
	<path class="st4" d="M-164.1-62.9h1v0.5c0.1-0.1,0.3-0.3,0.4-0.4c0.1-0.1,0.3-0.1,0.6-0.1c0.4,0,0.7,0.2,0.9,0.5
		c0.1,0.1,0.1,0.3,0.1,0.4c0,0.2,0,0.4,0,0.7v1.9c0,0.4,0,0.6,0,0.8s-0.1,0.3-0.1,0.4c-0.1,0.1-0.2,0.2-0.3,0.3s-0.3,0.1-0.6,0.1
		c-0.2,0-0.4,0-0.5-0.1c-0.2-0.1-0.3-0.2-0.4-0.4l0,0v2.5h-1L-164.1-62.9L-164.1-62.9z M-162-61.3c0-0.2,0-0.4-0.1-0.5
		s-0.2-0.2-0.4-0.2s-0.3,0.1-0.4,0.2c-0.1,0.1-0.1,0.3-0.1,0.5v2c0,0.2,0,0.3,0.1,0.4s0.2,0.2,0.4,0.2s0.3-0.1,0.4-0.2
		s0.1-0.3,0.1-0.4V-61.3L-162-61.3z"/>
	<path class="st4" d="M-158.5-65h1v1h-1V-65z M-158.5-62.9h1v5.1h-1V-62.9z"/>
	<path class="st4" d="M-154.9-64.4h1v1.5h0.6v0.8h-0.6v2.8c0,0.1,0,0.2,0,0.3s0.1,0.1,0.1,0.1c0.1,0,0.1,0.1,0.2,0.1s0.2,0,0.3,0v1
		h-0.4c-0.2,0-0.4,0-0.6-0.1c-0.2-0.1-0.3-0.2-0.4-0.3c-0.1-0.1-0.2-0.2-0.2-0.4c0-0.1-0.1-0.3-0.1-0.4v-3.1h-0.5v-0.8h0.5
		L-154.9-64.4L-154.9-64.4z"/>
	<path class="st4" d="M-149.2-58.4L-149.2-58.4c-0.2,0.2-0.3,0.3-0.4,0.4c-0.1,0.1-0.3,0.1-0.6,0.1c-0.1,0-0.2,0-0.4-0.1
		c-0.1,0-0.2-0.1-0.4-0.2s-0.2-0.2-0.3-0.4s-0.1-0.4-0.1-0.7s0-0.5,0.1-0.8c0-0.2,0.1-0.4,0.3-0.5c0.1-0.1,0.3-0.3,0.5-0.3
		c0.2-0.1,0.5-0.1,0.8-0.1c0.1,0,0.1,0,0.2,0s0.2,0,0.3,0v-0.5c0-0.2,0-0.3-0.1-0.4c-0.1-0.1-0.2-0.2-0.4-0.2c-0.1,0-0.3,0-0.4,0.1
		c-0.1,0.1-0.2,0.2-0.2,0.4h-1c0-0.5,0.2-0.8,0.5-1.1c0.1-0.1,0.3-0.2,0.5-0.3s0.4-0.1,0.6-0.1c0.2,0,0.4,0,0.6,0.1
		c0.2,0.1,0.3,0.2,0.5,0.3c0.1,0.1,0.2,0.3,0.3,0.5s0.1,0.4,0.1,0.7v3.5h-1L-149.2-58.4L-149.2-58.4z M-149.2-60c-0.1,0-0.2,0-0.3,0
		c-0.2,0-0.4,0.1-0.6,0.2s-0.2,0.3-0.2,0.6c0,0.2,0,0.4,0.1,0.5s0.2,0.2,0.4,0.2s0.3-0.1,0.4-0.2s0.1-0.3,0.1-0.5L-149.2-60
		L-149.2-60z"/>
	<path class="st4" d="M-145.8-65h1v5.7c0,0.2,0,0.3,0.1,0.4c0.1,0.1,0.2,0.1,0.4,0.1v1c-0.2,0-0.4,0-0.6-0.1c-0.2,0-0.4-0.1-0.5-0.2
		s-0.2-0.2-0.3-0.4s-0.1-0.4-0.1-0.7L-145.8-65L-145.8-65z"/>
	<path class="st4" d="M-142.2-58.9h1v1h-1V-58.9z"/>
	<path class="st4" d="M-137.6-59.3c0,0.2,0,0.3,0.1,0.4s0.2,0.1,0.4,0.1s0.3-0.1,0.4-0.2s0.1-0.2,0.1-0.3h1c0,0.2,0,0.4-0.1,0.6
		s-0.2,0.3-0.3,0.5c-0.1,0.1-0.3,0.3-0.5,0.3c-0.2,0.1-0.4,0.1-0.6,0.1c-0.3,0-0.6-0.1-0.8-0.2c-0.2-0.1-0.4-0.3-0.5-0.5
		c-0.1-0.1-0.1-0.3-0.1-0.5s0-0.4,0-0.6v-1.7c0-0.2,0-0.4,0-0.6c0-0.2,0.1-0.3,0.1-0.5c0.1-0.2,0.3-0.4,0.5-0.5s0.5-0.2,0.8-0.2
		c0.2,0,0.4,0,0.6,0.1c0.2,0.1,0.4,0.2,0.5,0.3s0.2,0.3,0.3,0.5s0.1,0.4,0.1,0.7h-1c0-0.2,0-0.4-0.1-0.5s-0.2-0.1-0.4-0.1
		s-0.3,0-0.4,0.1s-0.1,0.2-0.1,0.4V-59.3z"/>
	<path class="st4" d="M-133.4-65h1v5.7c0,0.2,0,0.3,0.1,0.4c0.1,0.1,0.2,0.1,0.4,0.1v1c-0.2,0-0.4,0-0.6-0.1c-0.2,0-0.4-0.1-0.5-0.2
		s-0.2-0.2-0.3-0.4s-0.1-0.4-0.1-0.7L-133.4-65L-133.4-65z"/>
</g>
<g>
	<g>
		<polygon class="st0" points="40.5,-80.5 45.7,-77.5 64.2,-66.9 64.1,-94.1 45.7,-83.6 		"/>
		
			<linearGradient id="SVGID_16_" gradientUnits="userSpaceOnUse" x1="3.3273" y1="668.44" x2="60.0483" y2="668.44" gradientTransform="matrix(1 0 0 1 0 -769.89)">
			<stop  offset="0" style="stop-color:#F9A61A"/>
			<stop  offset="1" style="stop-color:#F05A29"/>
		</linearGradient>
		<path class="st21" d="M37.9-113.5l-0.3-0.2c-1.3-0.7-2.9-1.1-4.5-1.1c-1.6,0-3.1,0.4-4.4,1.1l-0.8,0.4L7.4-101.4l-0.8,0.5
			c-1.3,0.8-2.3,1.9-3.1,3.2L20-88.1l0,0l13-7.5l0.1-0.1l0.1,0.1l9,5.2l17.9-10.3L37.9-113.5z"/>
		
			<linearGradient id="SVGID_17_" gradientUnits="userSpaceOnUse" x1="60.119" y1="711.44" x2="33.5591" y2="711.44" gradientTransform="matrix(1 0 0 1 0 -769.89)">
			<stop  offset="0" style="stop-color:#F9A61A"/>
			<stop  offset="1" style="stop-color:#F05A29"/>
		</linearGradient>
		<path class="st22" d="M42.3-70.6l-9.1,5.2h-0.1l0,0v19.1c1.6,0,3-0.4,4.3-1.1l0.9-0.5L60-60.4L42.3-70.6z"/>
		
			<linearGradient id="SVGID_18_" gradientUnits="userSpaceOnUse" x1="17.7" y1="722.9956" x2="17.7" y2="672.7321" gradientTransform="matrix(1 0 0 1 0 -769.89)">
			<stop  offset="0" style="stop-color:#F9A61A"/>
			<stop  offset="1" style="stop-color:#F05A29"/>
		</linearGradient>
		<path class="st23" d="M33.1-65.3L20-72.9v-15.2l0,0l0,0L3.5-97.7c-0.7,1.2-1.1,2.5-1.3,4v1.7v23.8v0.2c0,3.3,1.7,6.1,4.3,7.8
			l1,0.6l20.7,12l0.6,0.3c1.3,0.7,2.9,1.1,4.4,1.1L33.1-65.3L33.1-65.3z"/>
		<g>
			<path class="st4" d="M71.8-91.4c0-1.9,0.9-2.7,2.7-2.7h6.8c4.5,0,6,3.1,6,6.9c0,3.5-1,5.1-3.2,6c2.6,0.9,3.1,2.6,3.1,5.7v2.9
				c0,1.5,0.3,2.8,0.3,4.2c0,0.8-0.7,1.6-2.4,1.6c-1.9,0-3-0.8-3-2.5l-0.2-6.8c-0.1-1.9-1-2.8-2.9-2.8h-2.1v9.6
				c0,1.6-1.2,2.6-2.5,2.6s-2.5-1-2.5-2.6L71.8-91.4L71.8-91.4z M76.8-82.8h1.9c2,0,3.4-0.9,3.4-3.8c0-2.7-0.8-3.8-3.2-3.8h-2.1
				L76.8-82.8L76.8-82.8z"/>
			<path class="st4" d="M90.4-79.5c0-5.1,0.7-8.4,6.9-8.4c4.7,0,6.3,2.6,6.3,7.9c0,1.8-0.2,3.2-2.5,3.2h-5.9v2c0,2.4,0.2,4.3,2,4.3
				c1,0,1.7-1,1.7-2.1c0.1-2,1-2.4,2.2-2.4c1.3,0,2.3,0.4,2.3,2.2c0,3.6-2.5,5.8-6.2,5.8c-6.1,0-6.9-3.3-6.9-8.4L90.4-79.5
				L90.4-79.5z M99-80v-1.7c0-1.5-0.5-2.7-2-2.7s-2,1.2-2,2.7v1.7H99z"/>
			<path class="st4" d="M106.3-80.1c0-4.1,0.7-7.8,4.8-7.8c1.7,0,3.2,0.8,4,2.3h0.1v-6.3c0-1.9,0.9-2.7,2.3-2.7s2.3,0.8,2.3,2.7
				v22.2c0,1.9-0.9,2.7-2.3,2.7c-1.3,0-2.3-1-2.3-2.3h-0.1c-0.8,1.6-2.3,2.3-4,2.3c-4.1,0-4.8-3.7-4.8-7.8
				C106.3-74.7,106.3-80.1,106.3-80.1z M111.1-75.9c0,3.3,0.2,5.3,1.9,5.3c1.8,0,2.3-2,2.3-4.9v-3.8c0-4-1.2-4.9-2.2-4.9
				c-1.5,0-1.9,1.2-1.9,5.6L111.1-75.9L111.1-75.9z"/>
			<path class="st5" d="M123.4-82.6c0-9.4,2.6-12.1,8.6-12.1c4.9,0,7.5,3,7.5,6.7c0,1.7-0.6,3-2.5,3s-2.4-0.8-2.7-3
				c-0.3-1.9-1-2.7-2.3-2.7c-2.3,0-3.4,1-3.4,9v1.5c0,6.4,0.1,9.6,3.2,9.6c1.3,0,2.4-1.2,2.5-2.7c0.1-3,0.6-4.1,2.7-4.1
				c1.7,0,2.5,1.1,2.5,2.9c0,5.6-3.3,7.8-8.1,7.8c-7.8,0-8-6.4-8-11.6C123.4-78.3,123.4-82.6,123.4-82.6z"/>
			<path class="st5" d="M155.1-71.7c0,1.3,0.3,2.4,0.3,3c0,1.2-0.8,1.8-2.3,1.8c-1.2,0-2.4-0.6-2.4-2.6h-0.1
				c-0.8,1.8-2.5,2.5-4.1,2.5c-2.7,0-4.7-1.6-4.7-5.4c0-3,0.9-4.8,3.2-6l4-2.1c1-0.5,1.4-1.3,1.4-2.1c0-1.1-0.6-2-1.7-2
				c-1.6,0-2,0.8-2.2,2.4c-0.1,0.9-1,1.4-2.2,1.4c-1,0-2.4-0.5-2.4-1.9c0-3.5,2.8-5.3,6.3-5.3c6,0,6.7,2.7,6.7,5.9L155.1-71.7
				L155.1-71.7z M150.6-77.8l-1.6,1.1c-2,1.4-2.4,2.1-2.4,3.8c0,1.5,0.6,2.4,1.6,2.4c1.5,0,2.4-1.6,2.4-3.7V-77.8z"/>
			<path class="st5" d="M159.1-85.2c0-1.9,0.9-2.7,2.3-2.7c1.4,0,2.3,0.9,2.3,2.7h0.1c0.8-1.7,2.4-2.7,4-2.7c4.1,0,4.8,3.7,4.8,7.8
				v5.4c0,4.1-0.7,7.8-4.8,7.8c-1.7,0-3.2-0.7-4-2.3h-0.1v6.7c0,1.9-0.9,2.7-2.3,2.7c-1.4,0-2.3-0.9-2.3-2.7V-85.2z M163.6-75.3
				c0,2.9,0.5,4.9,2.3,4.9c1.7,0,1.9-1.9,1.9-5.3v-2.8c0-4.4-0.4-5.6-1.9-5.6c-1.1,0-2.2,0.8-2.2,4.9v3.9H163.6z"/>
			<path class="st5" d="M178.6-94.7c1.4,0,2.6,1.1,2.6,2.6c0,1.4-1.1,2.6-2.6,2.6c-1.4,0-2.6-1.2-2.6-2.6S177.1-94.7,178.6-94.7z
				 M176.3-85.2c0-1.9,0.9-2.7,2.3-2.7c1.4,0,2.3,0.9,2.3,2.7v15.6c0,1.9-0.9,2.7-2.3,2.7c-1.4,0-2.3-0.9-2.3-2.7V-85.2z"/>
			<path class="st5" d="M185.5-84.1H185c-1.3,0-2-0.4-2-1.7c0-1.3,0.7-1.7,2-1.7h0.5v-3.4c0-1.9,0.9-2.7,2.3-2.7
				c1.4,0,2.3,0.9,2.3,2.7v3.4h1c1.3,0,2,0.4,2,1.7c0,1.2-0.7,1.7-2,1.7h-1v11.8c0,0.8,0.2,1.3,1.2,1.4c1,0,1.7,0.4,1.7,1.6
				c0,1.5-0.9,2.1-2.9,2.1c-3.5,0-4.6-1.8-4.6-3.7V-84.1z"/>
			<path class="st5" d="M207.3-71.7c0,1.3,0.3,2.4,0.3,3c0,1.2-0.8,1.8-2.3,1.8c-1.2,0-2.4-0.6-2.4-2.6h-0.1
				c-0.8,1.8-2.5,2.5-4.1,2.5c-2.7,0-4.7-1.6-4.7-5.4c0-3,0.9-4.8,3.2-6l4-2.1c1-0.5,1.4-1.3,1.4-2.1c0-1.1-0.6-2-1.7-2
				c-1.6,0-2,0.8-2.2,2.4c-0.1,0.9-1,1.4-2.2,1.4c-1,0-2.4-0.5-2.4-1.9c0-3.5,2.8-5.3,6.3-5.3c6,0,6.7,2.7,6.7,5.9L207.3-71.7
				L207.3-71.7z M202.7-77.8l-1.6,1.1c-2,1.4-2.4,2.1-2.4,3.8c0,1.5,0.6,2.4,1.6,2.4c1.5,0,2.4-1.6,2.4-3.7V-77.8z"/>
			<path class="st5" d="M211.3-91.8c0-1.9,0.9-2.7,2.3-2.7c1.4,0,2.3,0.8,2.3,2.7v22.2c0,1.9-0.9,2.7-2.3,2.7
				c-1.4,0-2.3-0.9-2.3-2.7V-91.8z"/>
		</g>
	</g>
</g>
<g>
	<path class="st20" d="M76.4,85.7h-1.1l-0.7-3.6l0,0l-0.7,3.6h-1.1l-1.4-6.1h1.3l0.7,3.8l0,0l0.7-3.8h1l0.6,3.8l0,0l0.7-3.8h1.3
		L76.4,85.7z"/>
	<path class="st20" d="M87.6,85.7h-1.1l-0.7-3.6l0,0l-0.7,3.6H84l-1.4-6.1h1.3l0.7,3.8l0,0l0.7-3.8h1l0.6,3.8l0,0l0.7-3.8H89
		L87.6,85.7z"/>
	<path class="st20" d="M98.8,85.7h-1.1L97,82.1l0,0l-0.7,3.6h-1.1l-1.4-6.1h1.3l0.7,3.8l0,0l0.7-3.8h1l0.6,3.8l0,0l0.7-3.8h1.3
		L98.8,85.7z"/>
	<path class="st20" d="M105.1,84.4h1.2v1.2h-1.2V84.4z"/>
	<path class="st20" d="M112.2,79.6h1.2v0.6c0.2-0.2,0.5-0.4,0.7-0.5s0.5-0.2,0.9-0.2v1.3c-0.1,0-0.2-0.1-0.4-0.1s-0.3,0-0.4,0.1
		c-0.1,0-0.3,0.1-0.4,0.2c-0.1,0.1-0.2,0.2-0.3,0.4c-0.1,0.2-0.1,0.4-0.1,0.6v3.6h-1.2C112.2,85.6,112.2,79.6,112.2,79.6z"/>
	<path class="st20" d="M121.4,83.1v0.8c0,0.2,0.1,0.3,0.2,0.4s0.3,0.2,0.4,0.2c0.2,0,0.4-0.1,0.5-0.2s0.1-0.3,0.1-0.4h1.2
		c0,0.3,0,0.5-0.1,0.7s-0.2,0.4-0.4,0.6c-0.2,0.2-0.4,0.3-0.6,0.4s-0.5,0.1-0.8,0.1c-0.4,0-0.7-0.1-1-0.2c-0.3-0.2-0.5-0.4-0.6-0.6
		s-0.1-0.3-0.2-0.6c0-0.2,0-0.4,0-0.7v-2c0-0.2,0-0.5,0-0.7c0-0.2,0.1-0.4,0.2-0.6c0.1-0.3,0.4-0.5,0.6-0.6c0.3-0.2,0.6-0.2,1-0.2
		c0.3,0,0.5,0,0.8,0.1c0.2,0.1,0.4,0.2,0.6,0.4c0.2,0.2,0.3,0.4,0.4,0.6s0.1,0.5,0.1,0.7V83L121.4,83.1L121.4,83.1z M121.4,82.1h1.2
		v-0.7c0-0.2-0.1-0.4-0.2-0.5s-0.3-0.2-0.4-0.2c-0.2,0-0.3,0.1-0.4,0.2c-0.1,0.1-0.2,0.3-0.2,0.5V82.1L121.4,82.1z"/>
	<path class="st20" d="M132,85.1c-0.1,0.1-0.2,0.2-0.2,0.2s-0.2,0.1-0.2,0.2c-0.1,0.1-0.2,0.1-0.3,0.1s-0.2,0-0.4,0
		c-0.5,0-0.9-0.2-1.1-0.6c-0.1-0.1-0.1-0.3-0.2-0.5s0-0.5,0-0.8v-2.3c0-0.4,0-0.8,0-1c0-0.2,0.1-0.4,0.2-0.5
		c0.1-0.2,0.2-0.3,0.4-0.4c0.2-0.1,0.4-0.2,0.7-0.2c0.2,0,0.5,0.1,0.6,0.2c0.2,0.1,0.4,0.3,0.5,0.5l0,0v-3h1.2v8.5H132V85.1
		L132,85.1z M130.8,83.7c0,0.2,0,0.4,0.1,0.6s0.2,0.2,0.5,0.2c0.2,0,0.3-0.1,0.4-0.2c0.1-0.1,0.2-0.3,0.2-0.5v-2.4
		c0-0.2-0.1-0.3-0.2-0.5c-0.1-0.1-0.3-0.2-0.4-0.2c-0.2,0-0.4,0.1-0.5,0.2s-0.1,0.3-0.1,0.5V83.7L130.8,83.7z"/>
	<path class="st20" d="M140.3,83.9c0,0.2,0.1,0.3,0.2,0.4c0.1,0.1,0.3,0.2,0.4,0.2c0.2,0,0.4-0.1,0.5-0.2s0.1-0.3,0.1-0.4h1.2
		c0,0.3,0,0.5-0.1,0.7s-0.2,0.4-0.4,0.6s-0.4,0.3-0.6,0.4c-0.2,0.1-0.5,0.1-0.8,0.1c-0.4,0-0.7-0.1-1-0.2c-0.3-0.2-0.5-0.4-0.6-0.6
		s-0.1-0.3-0.2-0.6c0-0.2,0-0.4,0-0.7v-2c0-0.2,0-0.5,0-0.7c0-0.2,0.1-0.4,0.2-0.6c0.1-0.3,0.4-0.5,0.6-0.6c0.3-0.2,0.6-0.2,1-0.2
		c0.3,0,0.5,0,0.8,0.1c0.2,0.1,0.4,0.2,0.6,0.4c0.2,0.2,0.3,0.4,0.4,0.6s0.1,0.5,0.1,0.8h-1.2c0-0.2-0.1-0.4-0.2-0.5
		c-0.1-0.1-0.3-0.2-0.4-0.2c-0.2,0-0.3,0.1-0.4,0.2c-0.1,0.1-0.2,0.3-0.2,0.5L140.3,83.9L140.3,83.9z"/>
	<path class="st20" d="M150.6,85L150.6,85c-0.2,0.2-0.3,0.4-0.5,0.5s-0.4,0.2-0.7,0.2c-0.1,0-0.3,0-0.4-0.1c-0.2,0-0.3-0.1-0.4-0.2
		c-0.1-0.1-0.2-0.3-0.3-0.5s-0.1-0.5-0.1-0.8c0-0.3,0-0.6,0.1-0.9s0.2-0.5,0.3-0.6c0.1-0.2,0.3-0.3,0.6-0.4c0.3-0.1,0.6-0.1,0.9-0.1
		c0.1,0,0.2,0,0.3,0s0.2,0,0.3,0v-0.6c0-0.2,0-0.4-0.1-0.5s-0.2-0.2-0.5-0.2c-0.2,0-0.3,0.1-0.4,0.2c-0.1,0.1-0.2,0.3-0.3,0.5h-1.2
		c0-0.6,0.2-1,0.6-1.3c0.2-0.2,0.4-0.3,0.6-0.4c0.2-0.1,0.5-0.1,0.8-0.1s0.5,0,0.7,0.1s0.4,0.2,0.6,0.4c0.2,0.2,0.3,0.4,0.4,0.6
		c0.1,0.2,0.1,0.5,0.1,0.8v4.2h-1.2L150.6,85L150.6,85z M150.6,83.1c-0.1,0-0.2,0-0.3,0c-0.3,0-0.5,0.1-0.7,0.2
		c-0.2,0.1-0.3,0.3-0.3,0.7c0,0.2,0.1,0.4,0.2,0.6c0.1,0.1,0.3,0.2,0.5,0.2s0.4-0.1,0.5-0.2s0.2-0.3,0.2-0.6L150.6,83.1L150.6,83.1z
		"/>
	<path class="st20" d="M157.5,79.6h1.2v0.6c0.2-0.2,0.3-0.3,0.5-0.4c0.2-0.1,0.4-0.2,0.7-0.2c0.5,0,0.9,0.2,1.1,0.6
		c0.1,0.1,0.1,0.3,0.2,0.5c0,0.2,0,0.5,0,0.8v2.3c0,0.4,0,0.8,0,1s-0.1,0.4-0.2,0.5c-0.1,0.2-0.2,0.3-0.4,0.4s-0.4,0.2-0.7,0.2
		c-0.2,0-0.5-0.1-0.6-0.2c-0.2-0.1-0.4-0.3-0.5-0.5l0,0v3h-1.2L157.5,79.6L157.5,79.6z M159.9,81.6c0-0.2,0-0.4-0.1-0.6
		s-0.2-0.2-0.5-0.2c-0.2,0-0.3,0.1-0.4,0.2c-0.1,0.1-0.2,0.3-0.2,0.5v2.4c0,0.2,0.1,0.3,0.2,0.5c0.1,0.1,0.3,0.2,0.4,0.2
		c0.2,0,0.4-0.1,0.5-0.2s0.1-0.3,0.1-0.5V81.6L159.9,81.6z"/>
	<path class="st20" d="M167,77.1h1.2v1.2H167V77.1z M167,79.6h1.2v6.1H167V79.6z"/>
	<path class="st20" d="M174,77.7h1.2v1.8h0.8v1h-0.8v3.4c0,0.1,0,0.3,0,0.3c0,0.1,0.1,0.1,0.1,0.2c0.1,0,0.1,0.1,0.2,0.1
		c0.1,0,0.2,0,0.3,0v1.2h-0.5c-0.3,0-0.5,0-0.7-0.1s-0.3-0.2-0.4-0.3c-0.1-0.1-0.2-0.3-0.2-0.5s-0.1-0.3-0.1-0.5v-3.7h-0.6v-1h0.6
		L174,77.7L174,77.7z"/>
	<path class="st20" d="M183.6,85L183.6,85c-0.2,0.2-0.3,0.4-0.5,0.5s-0.4,0.2-0.7,0.2c-0.1,0-0.3,0-0.4-0.1c-0.2,0-0.3-0.1-0.4-0.2
		c-0.1-0.1-0.2-0.3-0.3-0.5s-0.1-0.5-0.1-0.8c0-0.3,0-0.6,0.1-0.9s0.2-0.5,0.3-0.6c0.1-0.2,0.3-0.3,0.6-0.4c0.3-0.1,0.6-0.1,0.9-0.1
		c0.1,0,0.2,0,0.3,0s0.2,0,0.3,0v-0.6c0-0.2,0-0.4-0.1-0.5s-0.2-0.2-0.5-0.2c-0.2,0-0.3,0.1-0.4,0.2c-0.1,0.1-0.2,0.3-0.3,0.5h-1.2
		c0-0.6,0.2-1,0.6-1.3c0.2-0.2,0.4-0.3,0.6-0.4c0.2-0.1,0.5-0.1,0.8-0.1s0.5,0,0.7,0.1s0.4,0.2,0.6,0.4c0.2,0.2,0.3,0.4,0.4,0.6
		c0.1,0.2,0.1,0.5,0.1,0.8v4.2h-1.2L183.6,85L183.6,85z M183.6,83.1c-0.1,0-0.2,0-0.3,0c-0.3,0-0.5,0.1-0.7,0.2
		c-0.2,0.1-0.3,0.3-0.3,0.7c0,0.2,0.1,0.4,0.2,0.6c0.1,0.1,0.3,0.2,0.5,0.2s0.4-0.1,0.5-0.2s0.2-0.3,0.2-0.6L183.6,83.1L183.6,83.1z
		"/>
	<path class="st20" d="M190.4,77.1h1.2V84c0,0.2,0,0.4,0.1,0.5s0.2,0.1,0.5,0.2v1.2c-0.3,0-0.5,0-0.8-0.1c-0.2,0-0.4-0.1-0.6-0.3
		s-0.3-0.3-0.4-0.5c-0.1-0.2-0.1-0.5-0.1-0.9L190.4,77.1L190.4,77.1z"/>
	<path class="st20" d="M197.5,84.4h1.2v1.2h-1.2V84.4z"/>
	<path class="st20" d="M205.8,83.9c0,0.2,0.1,0.3,0.2,0.4c0.1,0.1,0.3,0.2,0.4,0.2c0.2,0,0.4-0.1,0.5-0.2s0.1-0.3,0.1-0.4h1.2
		c0,0.3,0,0.5-0.1,0.7s-0.2,0.4-0.4,0.6s-0.4,0.3-0.6,0.4c-0.2,0.1-0.5,0.1-0.8,0.1c-0.4,0-0.7-0.1-1-0.2c-0.3-0.2-0.5-0.4-0.6-0.6
		s-0.1-0.3-0.2-0.6c0-0.2,0-0.4,0-0.7v-2c0-0.2,0-0.5,0-0.7c0-0.2,0.1-0.4,0.2-0.6c0.1-0.3,0.4-0.5,0.6-0.6c0.3-0.2,0.6-0.2,1-0.2
		c0.3,0,0.5,0,0.8,0.1c0.2,0.1,0.4,0.2,0.6,0.4c0.2,0.2,0.3,0.4,0.4,0.6s0.1,0.5,0.1,0.8H207c0-0.2-0.1-0.4-0.2-0.5
		c-0.1-0.1-0.3-0.2-0.4-0.2c-0.2,0-0.3,0.1-0.4,0.2c-0.1,0.1-0.2,0.3-0.2,0.5L205.8,83.9L205.8,83.9z"/>
	<path class="st20" d="M213.6,77.1h1.2V84c0,0.2,0,0.4,0.1,0.5s0.2,0.1,0.5,0.2v1.2c-0.3,0-0.5,0-0.8-0.1c-0.2,0-0.4-0.1-0.6-0.3
		s-0.3-0.3-0.4-0.5c-0.1-0.2-0.1-0.5-0.1-0.9L213.6,77.1L213.6,77.1z"/>
</g>
<g>
	<path class="st4" d="M76.4-49.8h-1.1l-0.7-3.6l0,0l-0.7,3.6h-1.1l-1.4-6.1h1.3l0.7,3.8l0,0l0.7-3.8h1l0.6,3.8l0,0l0.7-3.8h1.3
		L76.4-49.8z"/>
	<path class="st4" d="M87.6-49.8h-1.1l-0.7-3.6l0,0l-0.7,3.6H84l-1.4-6.1h1.3l0.7,3.8l0,0l0.7-3.8h1l0.6,3.8l0,0l0.7-3.8H89
		L87.6-49.8z"/>
	<path class="st4" d="M98.8-49.8h-1.1L97-53.4l0,0l-0.7,3.6h-1.1l-1.4-6.1h1.3l0.7,3.8l0,0l0.7-3.8h1l0.6,3.8l0,0l0.7-3.8h1.3
		L98.8-49.8z"/>
	<path class="st4" d="M105.1-51.1h1.2v1.2h-1.2V-51.1z"/>
	<path class="st4" d="M112.2-55.9h1.2v0.6c0.2-0.2,0.5-0.4,0.7-0.5s0.5-0.2,0.9-0.2v1.3c-0.1,0-0.2-0.1-0.4-0.1s-0.3,0-0.4,0.1
		c-0.1,0-0.3,0.1-0.4,0.2c-0.1,0.1-0.2,0.2-0.3,0.4s-0.1,0.4-0.1,0.6v3.6h-1.2C112.2-49.9,112.2-55.9,112.2-55.9z"/>
	<path class="st4" d="M121.4-52.4v0.8c0,0.2,0.1,0.3,0.2,0.4c0.1,0.1,0.3,0.2,0.4,0.2c0.2,0,0.4-0.1,0.5-0.2
		c0.1-0.1,0.1-0.3,0.1-0.4h1.2c0,0.3,0,0.5-0.1,0.7s-0.2,0.4-0.4,0.6c-0.2,0.2-0.4,0.3-0.6,0.4c-0.2,0.1-0.5,0.1-0.8,0.1
		c-0.4,0-0.7-0.1-1-0.2s-0.5-0.4-0.6-0.6c-0.1-0.2-0.1-0.3-0.2-0.6c0-0.2,0-0.4,0-0.7v-2c0-0.2,0-0.5,0-0.7s0.1-0.4,0.2-0.6
		c0.1-0.3,0.4-0.5,0.6-0.6c0.3-0.2,0.6-0.2,1-0.2c0.3,0,0.5,0,0.8,0.1c0.2,0.1,0.4,0.2,0.6,0.4s0.3,0.4,0.4,0.6s0.1,0.5,0.1,0.7v1.7
		L121.4-52.4L121.4-52.4z M121.4-53.4h1.2v-0.7c0-0.2-0.1-0.4-0.2-0.5s-0.3-0.2-0.4-0.2c-0.2,0-0.3,0.1-0.4,0.2s-0.2,0.3-0.2,0.5
		V-53.4L121.4-53.4z"/>
	<path class="st4" d="M132-50.4c-0.1,0.1-0.2,0.2-0.2,0.2s-0.2,0.1-0.2,0.2c-0.1,0.1-0.2,0.1-0.3,0.1s-0.2,0-0.4,0
		c-0.5,0-0.9-0.2-1.1-0.6c-0.1-0.1-0.1-0.3-0.2-0.5s0-0.5,0-0.8V-54c0-0.4,0-0.8,0-1s0.1-0.4,0.2-0.5c0.1-0.2,0.2-0.3,0.4-0.4
		s0.4-0.2,0.7-0.2c0.2,0,0.5,0.1,0.6,0.2c0.2,0.1,0.4,0.3,0.5,0.5l0,0v-3h1.2v8.5H132V-50.4L132-50.4z M130.8-51.8
		c0,0.2,0,0.4,0.1,0.6s0.2,0.2,0.5,0.2c0.2,0,0.3-0.1,0.4-0.2c0.1-0.1,0.2-0.3,0.2-0.5v-2.4c0-0.2-0.1-0.3-0.2-0.5
		c-0.1-0.1-0.3-0.2-0.4-0.2c-0.2,0-0.4,0.1-0.5,0.2c-0.1,0.1-0.1,0.3-0.1,0.5V-51.8L130.8-51.8z"/>
	<path class="st4" d="M140.3-51.6c0,0.2,0.1,0.3,0.2,0.4s0.3,0.2,0.4,0.2c0.2,0,0.4-0.1,0.5-0.2c0.1-0.1,0.1-0.3,0.1-0.4h1.2
		c0,0.3,0,0.5-0.1,0.7s-0.2,0.4-0.4,0.6c-0.2,0.2-0.4,0.3-0.6,0.4c-0.2,0.1-0.5,0.1-0.8,0.1c-0.4,0-0.7-0.1-1-0.2
		c-0.3-0.2-0.5-0.4-0.6-0.6c-0.1-0.2-0.1-0.3-0.2-0.6c0-0.2,0-0.4,0-0.7v-2c0-0.2,0-0.5,0-0.7s0.1-0.4,0.2-0.6
		c0.1-0.3,0.4-0.5,0.6-0.6c0.3-0.2,0.6-0.2,1-0.2c0.3,0,0.5,0,0.8,0.1c0.2,0.1,0.4,0.2,0.6,0.4c0.2,0.2,0.3,0.4,0.4,0.6
		s0.1,0.5,0.1,0.8h-1.2c0-0.2-0.1-0.4-0.2-0.5c-0.1-0.1-0.3-0.2-0.4-0.2c-0.2,0-0.3,0.1-0.4,0.2s-0.2,0.3-0.2,0.5L140.3-51.6
		L140.3-51.6z"/>
	<path class="st4" d="M150.6-50.5L150.6-50.5c-0.2,0.2-0.3,0.4-0.5,0.5s-0.4,0.2-0.7,0.2c-0.1,0-0.3,0-0.4-0.1
		c-0.2,0-0.3-0.1-0.4-0.2c-0.1-0.1-0.2-0.3-0.3-0.5s-0.1-0.5-0.1-0.8s0-0.6,0.1-0.9s0.2-0.5,0.3-0.6c0.1-0.2,0.3-0.3,0.6-0.4
		s0.6-0.1,0.9-0.1c0.1,0,0.2,0,0.3,0s0.2,0,0.3,0V-54c0-0.2,0-0.4-0.1-0.5s-0.2-0.2-0.5-0.2c-0.2,0-0.3,0.1-0.4,0.2
		c-0.1,0.1-0.2,0.3-0.3,0.5h-1.2c0-0.6,0.2-1,0.6-1.3c0.2-0.2,0.4-0.3,0.6-0.4c0.2-0.1,0.5-0.1,0.8-0.1s0.5,0,0.7,0.1
		s0.4,0.2,0.6,0.4s0.3,0.4,0.4,0.6c0.1,0.2,0.1,0.5,0.1,0.8v4.2h-1.2L150.6-50.5L150.6-50.5z M150.6-52.4c-0.1,0-0.2,0-0.3,0
		c-0.3,0-0.5,0.1-0.7,0.2c-0.2,0.1-0.3,0.3-0.3,0.7c0,0.2,0.1,0.4,0.2,0.6c0.1,0.1,0.3,0.2,0.5,0.2s0.4-0.1,0.5-0.2
		c0.1-0.1,0.2-0.3,0.2-0.6L150.6-52.4L150.6-52.4z"/>
	<path class="st4" d="M157.5-55.9h1.2v0.6c0.2-0.2,0.3-0.3,0.5-0.4c0.2-0.1,0.4-0.2,0.7-0.2c0.5,0,0.9,0.2,1.1,0.6
		c0.1,0.1,0.1,0.3,0.2,0.5c0,0.2,0,0.5,0,0.8v2.3c0,0.4,0,0.8,0,1s-0.1,0.4-0.2,0.5c-0.1,0.2-0.2,0.3-0.4,0.4
		c-0.2,0.1-0.4,0.2-0.7,0.2c-0.2,0-0.5-0.1-0.6-0.2c-0.2-0.1-0.4-0.3-0.5-0.5l0,0v3h-1.2L157.5-55.9L157.5-55.9z M159.9-53.9
		c0-0.2,0-0.4-0.1-0.6c-0.1-0.2-0.2-0.2-0.5-0.2c-0.2,0-0.3,0.1-0.4,0.2c-0.1,0.1-0.2,0.3-0.2,0.5v2.4c0,0.2,0.1,0.3,0.2,0.5
		c0.1,0.1,0.3,0.2,0.4,0.2c0.2,0,0.4-0.1,0.5-0.2c0.1-0.1,0.1-0.3,0.1-0.5V-53.9L159.9-53.9z"/>
	<path class="st4" d="M167-58.4h1.2v1.2H167V-58.4z M167-55.9h1.2v6.1H167V-55.9z"/>
	<path class="st4" d="M174-57.8h1.2v1.8h0.8v1h-0.8v3.4c0,0.1,0,0.3,0,0.3c0,0.1,0.1,0.1,0.1,0.2c0.1,0,0.1,0.1,0.2,0.1
		c0.1,0,0.2,0,0.3,0v1.2h-0.5c-0.3,0-0.5,0-0.7-0.1s-0.3-0.2-0.4-0.3c-0.1-0.1-0.2-0.3-0.2-0.5s-0.1-0.3-0.1-0.5V-55h-0.6v-1h0.6
		L174-57.8L174-57.8z"/>
	<path class="st4" d="M183.6-50.5L183.6-50.5c-0.2,0.2-0.3,0.4-0.5,0.5s-0.4,0.2-0.7,0.2c-0.1,0-0.3,0-0.4-0.1
		c-0.2,0-0.3-0.1-0.4-0.2c-0.1-0.1-0.2-0.3-0.3-0.5S181-51,181-51.4c0-0.3,0-0.6,0.1-0.9s0.2-0.5,0.3-0.6c0.1-0.2,0.3-0.3,0.6-0.4
		s0.6-0.1,0.9-0.1c0.1,0,0.2,0,0.3,0s0.2,0,0.3,0V-54c0-0.2,0-0.4-0.1-0.5s-0.2-0.2-0.5-0.2c-0.2,0-0.3,0.1-0.4,0.2
		c-0.1,0.1-0.2,0.3-0.3,0.5H181c0-0.6,0.2-1,0.6-1.3c0.2-0.2,0.4-0.3,0.6-0.4c0.2-0.1,0.5-0.1,0.8-0.1s0.5,0,0.7,0.1
		s0.4,0.2,0.6,0.4s0.3,0.4,0.4,0.6c0.1,0.2,0.1,0.5,0.1,0.8v4.2h-1.2L183.6-50.5L183.6-50.5z M183.6-52.4c-0.1,0-0.2,0-0.3,0
		c-0.3,0-0.5,0.1-0.7,0.2c-0.2,0.1-0.3,0.3-0.3,0.7c0,0.2,0.1,0.4,0.2,0.6c0.1,0.1,0.3,0.2,0.5,0.2s0.4-0.1,0.5-0.2
		c0.1-0.1,0.2-0.3,0.2-0.6L183.6-52.4L183.6-52.4z"/>
	<path class="st4" d="M190.4-58.4h1.2v6.8c0,0.2,0,0.4,0.1,0.5s0.2,0.1,0.5,0.2v1.2c-0.3,0-0.5,0-0.8-0.1c-0.2,0-0.4-0.1-0.6-0.3
		s-0.3-0.3-0.4-0.5c-0.1-0.2-0.1-0.5-0.1-0.9L190.4-58.4L190.4-58.4z"/>
	<path class="st4" d="M197.5-51.1h1.2v1.2h-1.2V-51.1z"/>
	<path class="st4" d="M205.8-51.6c0,0.2,0.1,0.3,0.2,0.4s0.3,0.2,0.4,0.2c0.2,0,0.4-0.1,0.5-0.2c0.1-0.1,0.1-0.3,0.1-0.4h1.2
		c0,0.3,0,0.5-0.1,0.7s-0.2,0.4-0.4,0.6c-0.2,0.2-0.4,0.3-0.6,0.4c-0.2,0.1-0.5,0.1-0.8,0.1c-0.4,0-0.7-0.1-1-0.2
		c-0.3-0.2-0.5-0.4-0.6-0.6c-0.1-0.2-0.1-0.3-0.2-0.6c0-0.2,0-0.4,0-0.7v-2c0-0.2,0-0.5,0-0.7s0.1-0.4,0.2-0.6
		c0.1-0.3,0.4-0.5,0.6-0.6c0.3-0.2,0.6-0.2,1-0.2c0.3,0,0.5,0,0.8,0.1c0.2,0.1,0.4,0.2,0.6,0.4c0.2,0.2,0.3,0.4,0.4,0.6
		s0.1,0.5,0.1,0.8H207c0-0.2-0.1-0.4-0.2-0.5c-0.1-0.1-0.3-0.2-0.4-0.2c-0.2,0-0.3,0.1-0.4,0.2s-0.2,0.3-0.2,0.5L205.8-51.6
		L205.8-51.6z"/>
	<path class="st4" d="M213.6-58.4h1.2v6.8c0,0.2,0,0.4,0.1,0.5s0.2,0.1,0.5,0.2v1.2c-0.3,0-0.5,0-0.8-0.1c-0.2,0-0.4-0.1-0.6-0.3
		s-0.3-0.3-0.4-0.5c-0.1-0.2-0.1-0.5-0.1-0.9L213.6-58.4L213.6-58.4z"/>
</g>
<text transform="matrix(1 0 0 1 268.7184 65.6667)" class="st12" style="font-family:'ArialMT'; font-size:12px; letter-spacing:3;">www.redcapital.cl</text>
<text transform="matrix(1 0 0 1 268.7184 -49.8333)" class="st4" style="font-family:'ArialMT'; font-size:12px; letter-spacing:3;">www.redcapital.cl</text>
<path class="st20" d="M219.8,44.6h3.4V48h-3.4V44.6z"/>
<path class="st20" d="M228.9,43.2c0,0.6,0.3,0.8,0.6,1.1c0.3,0.3,0.8,0.6,1.1,0.6c0.6,0,1.1-0.3,1.4-0.6c0.3-0.3,0.3-0.8,0.3-1.1
	h3.4c0,0.8,0,1.4-0.3,2c-0.3,0.6-0.6,1.1-1.1,1.7s-1.1,0.8-1.7,1.1c-0.6,0.3-1.4,0.3-2.2,0.3c-1.1,0-2-0.3-2.8-0.6
	c-0.8-0.6-1.4-1.1-1.7-1.7s-0.3-0.8-0.6-1.7c0-0.6,0-1.1,0-2v-5.6c0-0.6,0-1.4,0-2s0.3-1.1,0.6-1.7c0.3-0.8,1.1-1.4,1.7-1.7
	c0.8-0.6,1.7-0.6,2.8-0.6c0.8,0,1.4,0,2.2,0.3c0.6,0.3,1.1,0.6,1.7,1.1c0.6,0.6,0.8,1.1,1.1,1.7c0.3,0.6,0.3,1.4,0.3,2.2h-3.4
	c0-0.6-0.3-1.1-0.6-1.4c-0.3-0.3-0.8-0.6-1.1-0.6c-0.6,0-0.8,0.3-1.1,0.6c-0.3,0.3-0.6,0.8-0.6,1.4L228.9,43.2L228.9,43.2z"/>
<path class="st20" d="M238.5,24.2h3.4v19.3c0,0.6,0,1.1,0.3,1.4c0.3,0.3,0.6,0.3,1.4,0.6v3.4c-0.8,0-1.4,0-2.2-0.3
	c-0.6,0-1.1-0.3-1.7-0.8c-0.6-0.6-0.8-0.8-1.1-1.4c-0.3-0.6-0.3-1.4-0.3-2.5L238.5,24.2L238.5,24.2z"/>
</svg>
